<svg xmlns="http://www.w3.org/2000/svg" xmlns:xlink="http://www.w3.org/1999/xlink" width="73" height="73" viewBox="0 0 73 73">
  <defs>
    <linearGradient id="linear-gradient" x1="0.5" x2="0.5" y2="1" gradientUnits="objectBoundingBox">
      <stop offset="0" stop-color="#ddf1ff"/>
      <stop offset="1" stop-color="#fff"/>
    </linearGradient>
  </defs>
  <g id="img5" transform="translate(-264.528 -6025.861)">
    <g id="Group_1099808" data-name="Group 1099808" transform="translate(264.663 6025.995)">
      <g id="Group_1099775" data-name="Group 1099775" transform="translate(0 0)">
        <g id="Group_1099770" data-name="Group 1099770">
          <rect id="Rectangle_401345" data-name="Rectangle 401345" width="61.989" height="61.989" transform="translate(5.324 5.419)" fill="url(#linear-gradient)"/>
          <path id="Subtraction_141" data-name="Subtraction 141" d="M63.019,73,0,63.018,9.984,0,73,9.982,63.019,73h0ZM13.771,5.215,5.213,59.229l54.017,8.555,8.556-54.016L13.77,5.215Z" transform="translate(-0.135 -0.134)" fill="#59c4c8"/>
        </g>
      </g>
      <g id="Group_1099776" data-name="Group 1099776" transform="translate(14.784 14.782)">
        <g id="Group_1099618" data-name="Group 1099618" transform="translate(0 0)">
          <rect id="Rectangle_401104" data-name="Rectangle 401104" width="42.655" height="43.169" transform="translate(0)" fill="none"/>
        </g>
        <path id="Path_912248" data-name="Path 912248" d="M45.931,14.559a.55.55,0,0,1-.55.55H44.223l-.793,1.059A.551.551,0,0,1,42.5,16.1l-1.014-1.88-.221.546a.55.55,0,0,1-.51.344H39.82l-1.129,2.784a.551.551,0,0,1-.5.344h-.005a.55.55,0,0,1-.506-.334l-1.2-2.794h-.821a.55.55,0,0,1,0-1.1h1.184a.55.55,0,0,1,.506.334l.818,1.913.772-1.9a.55.55,0,0,1,.51-.344h.939l.521-1.286a.55.55,0,0,1,.995-.054l1.16,2.151.442-.59a.55.55,0,0,1,.441-.221h1.434a.551.551,0,0,1,.55.55Zm-3.646,7.058V26.71a2.05,2.05,0,0,1,1.643,1.271,6.257,6.257,0,0,1,.235,2.292h.324a.55.55,0,0,1,.55.55v2.584h1.7V29.135a.55.55,0,0,1,1.1,0v7.59a.55.55,0,0,1-.55.55H40.559v1.887H42.5a.55.55,0,0,1,.55.55V42.48a.55.55,0,0,1-.55.55H40.559v.649a2.118,2.118,0,1,1-1.1,0v-.649H17.385v.649a2.119,2.119,0,1,1-1.1,0v-.649H14.343a.55.55,0,0,1-.55-.55V39.713a.55.55,0,0,1,.55-.55h1.941V37.276H9.55a.55.55,0,0,1-.55-.55V9.55A.55.55,0,0,1,9.55,9h5.588a.55.55,0,0,1,.55.55v1.27h1.165a.55.55,0,0,1,.55.55V14.6a2.27,2.27,0,0,1-1.715,2.2v2.079c0,1.569,1.583,1.9,4.166,2.3a11.6,11.6,0,0,1,4.511,1.333,8.618,8.618,0,0,1,3.869-.68,9.313,9.313,0,0,1,7.008,4.026l3.513.42V21.617H33.747a.55.55,0,0,1-.55-.55V9.55a.55.55,0,0,1,.55-.55H47.293a.55.55,0,0,1,.55.55V21.067a.55.55,0,0,1-.55.55Zm-25.45,23.09a1.018,1.018,0,1,0,1.018,1.018A1.019,1.019,0,0,0,16.835,44.707Zm23.174,0a1.018,1.018,0,1,0,1.018,1.018A1.019,1.019,0,0,0,40.009,44.707ZM34.3,20.516H46.743V10.1H34.3Zm-9.02,2.821a3.734,3.734,0,0,1,.756,1.982h4.7a.551.551,0,0,1,.065,0l2.888.345a8.054,8.054,0,0,0-5.51-2.74,7.477,7.477,0,0,0-2.895.409Zm-1.065.463a8.435,8.435,0,0,0-2.244,1.726,3.4,3.4,0,0,1-2.157,4.438l.535.309h2.136V28.347a3.032,3.032,0,0,1,2.449-2.971,2.583,2.583,0,0,0-.719-1.575ZM17.6,28.687l.022.013a2.29,2.29,0,0,0,2.822-.385L18.514,27.2a.55.55,0,0,1-.2-.752l1.114-1.93A2.3,2.3,0,0,0,17.6,28.687ZM20.38,25.07l-.839,1.452L21,27.362a2.289,2.289,0,0,0-.615-2.292ZM16.3,11.921h-2.33V14.6a1.165,1.165,0,1,0,2.33,0V11.921ZM10.1,33.407h7.231l-5.25-3.031a.55.55,0,0,1-.2-.751l1.555-2.706a.55.55,0,0,1,.752-.2l1.287.743a3.4,3.4,0,0,1,5.915-2.92,9.579,9.579,0,0,1,1.8-1.425,14.171,14.171,0,0,0-3.5-.851,13.058,13.058,0,0,1-3.361-.81,2.7,2.7,0,0,1-1.736-2.575V16.8a2.269,2.269,0,0,1-1.715-2.2V11.371a.55.55,0,0,1,.55-.55h1.165V10.1H10.1ZM41.95,40.264H14.894V41.93H41.95Zm-2.492-2.988H17.385v1.887H39.458V37.276Zm7.285-2.767H10.1v1.666H46.743Zm-2.806-1.1V31.374H20.2a.55.55,0,0,1-.275-.074l-5.81-3.354L13.107,29.7l6.053,3.495.044.028a1.009,1.009,0,0,0,.588.187H43.937Zm-2.09-5.654L30.695,26.42H25.51a1.929,1.929,0,0,0-1.926,1.926v1.926h8.082a.833.833,0,1,0,0-1.666H25.851a.55.55,0,0,1,0-1.1h5.814a1.934,1.934,0,0,1,1.745,2.767h9.652c.018-1.841-.032-2.379-1.215-2.52Zm-.663-6.136H39.856v4.789l1.329.159Z" transform="translate(-7.094 -6.836)" fill="#445866"/>
      </g>
    </g>
  </g>
</svg>
