<svg xmlns="http://www.w3.org/2000/svg" xmlns:xlink="http://www.w3.org/1999/xlink" width="80.832" height="81.136" viewBox="0 0 80.832 81.136">
  <defs>
    <clipPath id="clip-path">
      <rect id="Rectangle_401125" data-name="Rectangle 401125" width="80.832" height="81.136" fill="none"/>
    </clipPath>
    <clipPath id="clip-path-2">
      <rect id="Rectangle_401127" data-name="Rectangle 401127" width="40.762" height="45.856" fill="#2a5f61"/>
    </clipPath>
  </defs>
  <g id="banner-principal-decorativo-1" transform="translate(-849.917 -264.682)">
    <g id="Group_1099469" data-name="Group 1099469" transform="translate(849.917 264.683)">
      <g id="Group_1099467" data-name="Group 1099467" transform="translate(0 0)" clip-path="url(#clip-path)">
        <path id="Path_873452" data-name="Path 873452" d="M7.129,58.863,58.371,68.3a3.65,3.65,0,0,1,1.5.649L73.818,79.173a3.662,3.662,0,0,0,5.83-2.952V20.557a3.663,3.663,0,0,0-3-3.6L8.454,4.4a3.663,3.663,0,0,0-4.325,3.6V55.261a3.663,3.663,0,0,0,3,3.6" transform="translate(-4.129 1.245)" fill="#355855"/>
        <path id="Path_873453" data-name="Path 873453" d="M3,54.521l51.242,9.432a3.65,3.65,0,0,1,1.5.649L69.689,74.831a3.662,3.662,0,0,0,5.83-2.952V16.215a3.663,3.663,0,0,0-3-3.6L4.325.062A3.662,3.662,0,0,0,0,3.664V50.919a3.663,3.663,0,0,0,3,3.6" transform="translate(5.314 0)" fill="#fff"/>
      </g>
    </g>
    <g id="Group_1099474" data-name="Group 1099474" transform="translate(872.708 275.911)">
      <g id="Group_1099473" data-name="Group 1099473" transform="translate(0 0)" clip-path="url(#clip-path-2)">
        <path id="Path_873456" data-name="Path 873456" d="M24.046,27.424a2.835,2.835,0,0,1-.965.23,40.291,40.291,0,0,1-5.59.434c-3.759-.079-6.567-2.916-7.2-6.749C8.475,20.238,4.96,16.6,3.109,16.3c-3.008-.478-4.21,3.219-1.9,5.49L14.877,32.348c4.183,1.921,8.967,1.537,13.332,2.332.91.264,3.989,3.332,5.221,3.959,1.08.548,1.374.146,1.919-.553A63.5,63.5,0,0,0,40.3,30.478c.587-1.11.785-1.605-.421-2.645-2.822-2.432-7.715-6.154-10.757-8.2A7.934,7.934,0,0,0,24.78,18.02a58.015,58.015,0,0,0-9.656.838c-3.569.825-2.372,6.007,1.382,6.6L23.285,25c.988.334,1.528,1.877.761,2.428" transform="translate(0 6.962)" fill="#2a5f61"/>
        <path id="Path_873457" data-name="Path 873457" d="M22.97,9.332c-.354-.15-.57.24-.857.387a8.011,8.011,0,0,1-8.832-1.043c-.468-.357-1.32-1.4-1.725-1.311-.868.184-2.706,2.282-3.139,3.088-.646,1.2-2.074,5.207.193,5.89,5.537.61,11.788,2.649,17.3,3.14,2.255.2,1.265-3.213.755-4.73a12.8,12.8,0,0,0-3.7-5.421" transform="translate(2.895 3.151)" fill="#2a5f61"/>
        <path id="Path_873458" data-name="Path 873458" d="M16.737.277C9.37-1.848,8.419,8.884,15.352,10.9c7.165,2.078,8.259-8.634,1.385-10.618" transform="translate(4.208 0)" fill="#2a5f61"/>
      </g>
    </g>
  </g>
</svg>
