<svg xmlns="http://www.w3.org/2000/svg" xmlns:xlink="http://www.w3.org/1999/xlink" width="90.161" height="90.5" viewBox="0 0 90.161 90.5">
  <defs>
    <clipPath id="clip-path">
      <rect id="Rectangle_401125" data-name="Rectangle 401125" width="90.161" height="90.5" fill="none"/>
    </clipPath>
    <clipPath id="clip-path-2">
      <rect id="Rectangle_401126" data-name="Rectangle 401126" width="44.953" height="47.182" fill="#2a5f61"/>
    </clipPath>
  </defs>
  <g id="banner-principal-decorativo-2" transform="translate(-1244.839 -184.492)">
    <g id="Group_1099468" data-name="Group 1099468" transform="translate(1244.839 184.492)">
      <g id="Group_1099467" data-name="Group 1099467" transform="translate(0 0)" clip-path="url(#clip-path)">
        <path id="Path_873452" data-name="Path 873452" d="M85.017,65.156,27.861,75.676a4.071,4.071,0,0,0-1.677.723L10.631,87.81a4.085,4.085,0,0,1-6.5-3.293V22.428A4.085,4.085,0,0,1,7.475,18.41l76.064-14a4.085,4.085,0,0,1,4.824,4.018v52.71a4.085,4.085,0,0,1-3.346,4.018" transform="translate(1.798 1.89)" fill="#355855"/>
        <path id="Path_873453" data-name="Path 873453" d="M80.888,60.814,23.732,71.334a4.071,4.071,0,0,0-1.677.723L6.5,83.468A4.085,4.085,0,0,1,0,80.175V18.086a4.085,4.085,0,0,1,3.346-4.018L79.41.069a4.085,4.085,0,0,1,4.824,4.018V56.8a4.085,4.085,0,0,1-3.346,4.018" transform="translate(0 0)" fill="#fff"/>
      </g>
    </g>
    <g id="Group_1099471" data-name="Group 1099471" transform="translate(1264.839 198.596)">
      <g id="Group_1099470" data-name="Group 1099470" transform="translate(0 0)" clip-path="url(#clip-path-2)">
        <path id="Path_873454" data-name="Path 873454" d="M35.492,5.493l-2.074.377c-.9-4.142-4.751-6.525-9.21-5.71L20.46.848a11.828,11.828,0,0,0-9.144,9.044l-2.046.372A11.572,11.572,0,0,0,0,21.122v5.5l44.953-7.992V13.06C44.945,7.935,40.709,4.55,35.492,5.493ZM15.2,9.185a7.112,7.112,0,0,1,5.26-4.648l3.747-.684a4.564,4.564,0,0,1,5.287,2.731Z" transform="translate(0 0.001)" fill="#2a5f61"/>
        <path id="Path_873455" data-name="Path 873455" d="M24.208,20.4a2.314,2.314,0,0,1-1.874,2.176,1.517,1.517,0,0,1-1.871-1.516V19.219L0,22.836v9.171c.006,5.061,4.148,8.452,9.272,7.58l26.219-4.5a11.624,11.624,0,0,0,9.461-10.911V14.892L24.208,18.557Z" transform="translate(0 7.458)" fill="#2a5f61"/>
      </g>
    </g>
  </g>
</svg>
