<svg xmlns="http://www.w3.org/2000/svg" xmlns:xlink="http://www.w3.org/1999/xlink" width="52" height="44" viewBox="0 0 52 44">
  <defs>
    <clipPath id="clip-path">
      <rect id="Rect치ngulo_401216" data-name="Rect치ngulo 401216" width="33.543" height="26.776" fill="#445866"/>
    </clipPath>
  </defs>
  <g id="icono" transform="translate(-180.711 -783)">
    <rect id="Rect치ngulo_401217" data-name="Rect치ngulo 401217" width="52" height="44" rx="8" transform="translate(180.711 783)" fill="#d8ceff"/>
    <g id="Grupo_1099669" data-name="Grupo 1099669" transform="translate(189.799 792.07)">
      <g id="Grupo_1099668" data-name="Grupo 1099668" clip-path="url(#clip-path)">
        <path id="Trazado_873536" data-name="Trazado 873536" d="M9.788,46.11v6.57a5.3,5.3,0,0,0,.791,2.1,3.968,3.968,0,0,0,5.318.981A4.212,4.212,0,0,0,17.584,53.4V49.647l.217-.217h6.786a5.911,5.911,0,0,1,1.038.406c2.366,1.219,1.87,5.127-.821,5.515.087.467.487.725.568,1.235a2.642,2.642,0,0,1-2.582,3.246c.232,1.72-.565,3.272-2.391,3.457-2.821.286-6.054-.233-8.92.032-1.652,1.424-2.984,3.753-5.541,2.594A45.146,45.146,0,0,1,.691,60.909a3.091,3.091,0,0,1,0-3.9C1.66,55.7,4.117,54.074,4.857,52.8c.5-.864.659-2.526,1.067-3.554A4.761,4.761,0,0,1,9.788,46.11" transform="translate(0 -39.452)" fill="#445866"/>
        <path id="Trazado_873537" data-name="Trazado 873537" d="M84.344,13.661c-.378,1.882-3.733,2.035-4.154-.033a51.213,51.213,0,0,1,0-7.585c.722-4.275,7.312-2.681,10.26-3.024C92.512,1.13,94.1-1.406,97.051.953A39.663,39.663,0,0,1,101.3,5.227c2.479,3.32-1.937,5.578-3.742,7.783-.289-1.757-.584-3.29-2.283-4.213a13.137,13.137,0,0,0-1.326-.551H84.56l-.217.217c-.209,1.506.281,3.8,0,5.2" transform="translate(-68.491 0)" fill="#445866"/>
      </g>
    </g>
  </g>
</svg>
