<svg xmlns="http://www.w3.org/2000/svg" width="139" height="138.999" viewBox="0 0 139 138.999">
  <g id="img11" transform="translate(-421.578 -7380.396)">
    <g id="Group_1099771" data-name="Group 1099771" transform="translate(-158.422 1763.557)">
      <g id="Group_1099770" data-name="Group 1099770" transform="translate(580 5616.839)">
        <rect id="Rectangle_401345" data-name="Rectangle 401345" width="120.838" height="120.838" transform="translate(9 9.161)" fill="#fff"/>
        <path id="Subtraction_141" data-name="Subtraction 141" d="M119.994,139,0,119.993,19.01,0,139,19.008,119.994,139v0h0v0ZM26.221,9.932,9.926,112.779l102.854,16.29L129.07,26.218,26.219,9.932Z" fill="#9ac1df"/>
      </g>
    </g>
    <g id="Group_1099772" data-name="Group 1099772" transform="translate(449.992 7407.791)">
      <g id="Group_1099618" data-name="Group 1099618" transform="translate(0 0)">
        <rect id="Rectangle_401104" data-name="Rectangle 401104" width="81.642" height="82.626" fill="none"/>
      </g>
      <g id="Group_1122190" data-name="Group 1122190" transform="translate(0.302 0)">
        <path id="Path_912223" data-name="Path 912223" d="M4.371,32.31a3.567,3.567,0,0,0-2.216,2.944,35.391,35.391,0,0,0,0,6.6,3.568,3.568,0,0,0,2.223,2.95L8.03,46.274a32.911,32.911,0,0,0,4.082,9.818L10.572,59.7a3.477,3.477,0,0,0,.505,3.689,40.029,40.029,0,0,0,4.654,4.654,3.353,3.353,0,0,0,1.646.756c1.533,12.752,10.693,13.823,23.18,13.823s21.65-1.071,23.18-13.83a3.375,3.375,0,0,0,1.654-.757,39.311,39.311,0,0,0,4.656-4.659,3.459,3.459,0,0,0,.5-3.659L69,56.092a32.941,32.941,0,0,0,4.082-9.818L76.745,44.8a3.561,3.561,0,0,0,2.214-2.943,35.393,35.393,0,0,0,0-6.6,3.566,3.566,0,0,0-2.221-2.95l-3.652-1.465A32.934,32.934,0,0,0,69,21.024l1.538-3.609a3.476,3.476,0,0,0-.505-3.691,39.822,39.822,0,0,0-4.656-4.654,3.451,3.451,0,0,0-3.659-.5l-3.63,1.546a32.949,32.949,0,0,0-9.82-4.082L46.8,2.37A3.565,3.565,0,0,0,43.862.157a35.161,35.161,0,0,0-6.6,0,3.567,3.567,0,0,0-2.951,2.221L32.842,6.03a32.934,32.934,0,0,0-9.82,4.082L19.413,8.574a3.481,3.481,0,0,0-3.691.505,39.743,39.743,0,0,0-4.656,4.657,3.462,3.462,0,0,0-.5,3.659l1.548,3.629a32.919,32.919,0,0,0-4.082,9.82L4.37,32.31ZM51.765,41a4.124,4.124,0,0,0-.668-7.844l1.646-2.974a4.579,4.579,0,0,0-.052-4.55,4.436,4.436,0,0,0-3.872-2.221,7.461,7.461,0,0,0-1.047.073,8.294,8.294,0,0,0-14.433,0,8.441,8.441,0,0,0-1.157-.076,4.4,4.4,0,0,0-3.758,2.221,4.579,4.579,0,0,0-.054,4.55l1.646,2.974A4.124,4.124,0,0,0,29.347,41,30.276,30.276,0,0,0,19.9,52.234a24.79,24.79,0,1,1,41.309-.006A30.285,30.285,0,0,0,51.763,41ZM30.917,38.558a1.377,1.377,0,0,1,0-2.754H50.2a1.377,1.377,0,0,1,0,2.754Zm19.417-9.711-2.326,4.2h-14.9l-2.326-4.2a1.844,1.844,0,0,1,.026-1.834,1.689,1.689,0,0,1,1.489-.848,4.266,4.266,0,0,1,1.341.2,1.377,1.377,0,0,0,1.691-.738,5.6,5.6,0,0,1,10.463,0,1.377,1.377,0,0,0,1.691.737,4.374,4.374,0,0,1,1.414-.2,1.655,1.655,0,0,1,1.414.848,1.848,1.848,0,0,1,.026,1.834ZM40.557,79.87C26.516,79.87,19.9,78.376,19.9,64.722a26.161,26.161,0,0,1,14.086-23.41h13.14a26.161,26.161,0,0,1,14.086,23.41C61.213,78.376,54.6,79.87,40.557,79.87Zm-30-47.731A30.228,30.228,0,0,1,14.815,21.9a1.376,1.376,0,0,0,.114-1.292L13.09,16.3a.746.746,0,0,1,.088-.792,37.212,37.212,0,0,1,4.334-4.332.751.751,0,0,1,.8-.074l4.3,1.83a1.368,1.368,0,0,0,1.292-.113A30.235,30.235,0,0,1,34.137,8.56a1.375,1.375,0,0,0,.991-.833L36.859,3.41a.812.812,0,0,1,.66-.514,32.856,32.856,0,0,1,6.1,0,.8.8,0,0,1,.631.5l1.735,4.325a1.373,1.373,0,0,0,.99.833,30.2,30.2,0,0,1,10.237,4.255,1.369,1.369,0,0,0,1.292.113l4.317-1.838a.736.736,0,0,1,.79.088,37.294,37.294,0,0,1,4.331,4.332.75.75,0,0,1,.076.8l-1.832,4.3A1.379,1.379,0,0,0,66.3,21.9a30.176,30.176,0,0,1,4.257,10.236,1.376,1.376,0,0,0,.833.99l4.318,1.734a.8.8,0,0,1,.512.658,32.616,32.616,0,0,1,0,6.1.8.8,0,0,1-.5.631l-4.325,1.736a1.373,1.373,0,0,0-.833.99A30.176,30.176,0,0,1,66.3,55.212a1.379,1.379,0,0,0-.113,1.293l1.84,4.316a.742.742,0,0,1-.09.792,36.038,36.038,0,0,1-3.984,4.021c.007-.3.017-.6.017-.91a29.245,29.245,0,0,0-1.533-9.5,27.537,27.537,0,1,0-43.76.008,29.232,29.232,0,0,0-1.529,9.489c0,.315.01.614.017.917A38.023,38.023,0,0,1,13.172,61.6a.753.753,0,0,1-.074-.8l1.832-4.3a1.372,1.372,0,0,0-.114-1.292,30.2,30.2,0,0,1-4.254-10.236,1.379,1.379,0,0,0-.833-.99L5.41,42.253a.812.812,0,0,1-.514-.66,32.745,32.745,0,0,1,0-6.1.8.8,0,0,1,.505-.631l4.324-1.735a1.376,1.376,0,0,0,.833-.99Z" transform="translate(0 0)" fill="#445866"/>
        <path id="Path_912224" data-name="Path 912224" d="M33.64,46.3V40.6a11.04,11.04,0,0,1,4.682,1.7,1.376,1.376,0,1,0,1.651-2.2,13.658,13.658,0,0,0-6.335-2.26V36.377a1.377,1.377,0,1,0-2.754,0v1.457C26.931,38.26,24,40.488,24,43.262c0,3.333,3.462,4.429,6.885,5.229v5.7a11.04,11.04,0,0,1-4.686-1.7,1.376,1.376,0,0,0-1.648,2.2,13.674,13.674,0,0,0,6.335,2.26v1.458a1.377,1.377,0,1,0,2.754,0V56.952c3.954-.426,6.885-2.654,6.885-5.428,0-3.333-3.463-4.429-6.885-5.229Zm-6.885-3.034c0-1.1,1.7-2.3,4.131-2.648v5.043C28.714,45.119,26.755,44.441,26.755,43.262ZM33.64,54.173V49.13c2.172.537,4.131,1.216,4.131,2.393,0,1.1-1.7,2.3-4.131,2.648Z" transform="translate(8.295 13.197)" fill="#445866"/>
      </g>
    </g>
  </g>
</svg>
