<svg xmlns="http://www.w3.org/2000/svg" xmlns:xlink="http://www.w3.org/1999/xlink" width="123.001" height="123" viewBox="0 0 123.001 123">
  <defs>
    <linearGradient id="linear-gradient" x1="0.5" x2="0.5" y2="1" gradientUnits="objectBoundingBox">
      <stop offset="0" stop-color="#ddf1ff"/>
      <stop offset="1" stop-color="#fff"/>
    </linearGradient>
  </defs>
  <g id="img15" transform="translate(-264.668 -6026)">
    <g id="Group_1099808" data-name="Group 1099808" transform="translate(264.668 6026)">
      <g id="Group_1099775" data-name="Group 1099775" transform="translate(0 0)">
        <g id="Group_1099770" data-name="Group 1099770" transform="translate(0 0)">
          <rect id="Rectangle_401345" data-name="Rectangle 401345" width="104.839" height="104.839" transform="translate(9 9.16)" fill="url(#linear-gradient)"/>
          <path id="Subtraction_141" data-name="Subtraction 141" d="M106.183,123,0,106.181,16.822,0,123,16.819,106.183,123v0h0v0ZM23.2,8.788,8.783,99.8,99.8,114.212,114.214,23.2,23.2,8.788Z" transform="translate(0 0)" fill="#8ce2e5"/>
        </g>
      </g>
      <g id="Group_1099776" data-name="Group 1099776" transform="translate(25 24.995)">
        <g id="Group_1099618" data-name="Group 1099618" transform="translate(0 0)">
          <rect id="Rectangle_401104" data-name="Rectangle 401104" width="72.141" height="73.01" transform="translate(0)" fill="none"/>
        </g>
        <path id="Path_913523" data-name="Path 913523" d="M120.6,58.037l-5.281,1.711a1.108,1.108,0,0,0-.707.688,30.022,30.022,0,0,1-1.357,3.449l-.521,1.078a1.124,1.124,0,0,0,.009.976l2.529,4.965-5.736,5.727-1.832-.93,4.546-13.732a1.1,1.1,0,0,0-1.051-1.45h-1.376a18.406,18.406,0,1,0-31.36,5.217v9.483L75.7,76.633l-5.737-5.727,2.529-4.965a1.093,1.093,0,0,0,.009-.976,34.05,34.05,0,0,1-1.878-4.528,1.114,1.114,0,0,0-.7-.688l-5.29-1.711V49.922l5.29-1.711a1.115,1.115,0,0,0,.7-.688,32.429,32.429,0,0,1,1.357-3.449L72.5,43a1.092,1.092,0,0,0-.009-.976l-2.529-4.965,5.736-5.727,4.956,2.519a1.112,1.112,0,0,0,.986.019,29.3,29.3,0,0,1,3.394-1.488l1.134-.4a1.079,1.079,0,0,0,.679-.7l1.72-5.29H96.67l1.72,5.29a1.115,1.115,0,0,0,.688.7,33.079,33.079,0,0,1,4.528,1.887,1.094,1.094,0,0,0,.976-.019l4.955-2.52,5.737,5.727-2.529,4.965a1.124,1.124,0,0,0-.009.976,29.212,29.212,0,0,1,1.478,3.394l.4,1.134a1.115,1.115,0,0,0,.7.688l5.29,1.711ZM92.18,76.577h12.914l4.583-13.853H96.764ZM80.67,75.191a1.391,1.391,0,0,0,1.395,1.385h7.791l1.171-3.524H86.434a1.107,1.107,0,0,1-1.1-1.106V64.416c-.047-.725-.223-2.724-3.738-3.291a8.911,8.911,0,0,0-.93,3.97ZM92.728,53.872a5.127,5.127,0,1,0-5.123-5.132A5.142,5.142,0,0,0,92.728,53.872ZM91.752,70.84l3.161-9.567a1.112,1.112,0,0,1,1.051-.753h7.568a9.057,9.057,0,0,0-7.763-4.444H89.7a9.019,9.019,0,0,0-6.778,3.068c2.836.744,4.454,2.538,4.621,5.179V70.84ZM107.437,60.52a16.2,16.2,0,1,0-28.645,1.888,11.262,11.262,0,0,1,8.888-8.358,7.331,7.331,0,1,1,10.1.009,11.277,11.277,0,0,1,8.238,6.461ZM94.412,92.614a1.794,1.794,0,1,1-1.794-1.785A1.79,1.79,0,0,1,94.412,92.614Zm22.4,0a1.794,1.794,0,1,1-1.794-1.794A1.79,1.79,0,0,1,116.809,92.614Zm-44.795,0a1.794,1.794,0,1,1-1.794-1.794A1.79,1.79,0,0,1,72.015,92.615ZM122.052,48.07l-5.532-1.794a30.7,30.7,0,0,0-1.562-3.747l2.65-5.188a1.1,1.1,0,0,0-.2-1.274l-6.871-6.87a1.116,1.116,0,0,0-1.283-.2l-5.179,2.641a32.681,32.681,0,0,0-3.747-1.553l-1.8-5.532a1.088,1.088,0,0,0-1.041-.762H87.763a1.1,1.1,0,0,0-1.051.762l-1.794,5.532a30.192,30.192,0,0,0-3.747,1.553l-5.188-2.64a1.118,1.118,0,0,0-1.283.2l-6.861,6.871a1.073,1.073,0,0,0-.2,1.274l2.641,5.188a29.136,29.136,0,0,0-1.553,3.747L63.19,48.072a1.108,1.108,0,0,0-.762,1.051v9.716a1.108,1.108,0,0,0,.762,1.051l5.532,1.794a29.135,29.135,0,0,0,1.553,3.747l-2.64,5.188a1.075,1.075,0,0,0,.2,1.274L74.7,78.762a1.1,1.1,0,0,0,1.283.2l3.2-1.627a3.588,3.588,0,0,0,2.882,1.441H91.52V82H72.042a2.926,2.926,0,0,0-2.919,2.929v3.849a3.992,3.992,0,1,0,2.2,0V84.926a.724.724,0,0,1,.716-.725H91.52v4.574a3.993,3.993,0,1,0,2.2,0V84.2h19.469a.726.726,0,0,1,.725.725v3.849a3.993,3.993,0,1,0,2.2,0V84.925A2.928,2.928,0,0,0,113.193,82H93.724V78.78h12.17a1.112,1.112,0,0,0,1.051-.753l.065-.2,2.241,1.144a1.116,1.116,0,0,0,1.283-.2L117.4,71.89a1.1,1.1,0,0,0,.2-1.274l-2.641-5.188A29.251,29.251,0,0,0,116.3,62.3l.223-.614,5.532-1.794a1.108,1.108,0,0,0,.762-1.051V49.121a1.109,1.109,0,0,0-.763-1.05Z" transform="translate(-56.552 -23.695)" fill="#445866" fill-rule="evenodd"/>
      </g>
    </g>
  </g>
</svg>
