<svg xmlns="http://www.w3.org/2000/svg" xmlns:xlink="http://www.w3.org/1999/xlink" width="123.001" height="123" viewBox="0 0 123.001 123">
  <defs>
    <linearGradient id="linear-gradient" x1="0.5" x2="0.5" y2="1" gradientUnits="objectBoundingBox">
      <stop offset="0" stop-color="#ddf1ff"/>
      <stop offset="1" stop-color="#fff"/>
    </linearGradient>
  </defs>
  <g id="img18" transform="translate(-264.668 -6026)">
    <g id="Group_1099808" data-name="Group 1099808" transform="translate(264.668 6026)">
      <g id="Group_1099775" data-name="Group 1099775" transform="translate(0 0)">
        <g id="Group_1099770" data-name="Group 1099770" transform="translate(0 0)">
          <rect id="Rectangle_401345" data-name="Rectangle 401345" width="104.839" height="104.839" transform="translate(9 9.16)" fill="url(#linear-gradient)"/>
          <path id="Subtraction_141" data-name="Subtraction 141" d="M106.183,123,0,106.181,16.822,0,123,16.819,106.183,123v0h0v0ZM23.2,8.788,8.783,99.8,99.8,114.212,114.214,23.2,23.2,8.788Z" transform="translate(0 0)" fill="#8ce2e5"/>
        </g>
      </g>
      <g id="Group_1099776" data-name="Group 1099776" transform="translate(25 24.995)">
        <g id="Group_1099618" data-name="Group 1099618" transform="translate(0 0)">
          <rect id="Rectangle_401104" data-name="Rectangle 401104" width="72.141" height="73.01" transform="translate(0)" fill="none"/>
        </g>
        <g id="Group_1122520" data-name="Group 1122520" transform="translate(0.562 1.074)">
          <path id="Path_913519" data-name="Path 913519" d="M4.987,42.588l.191,1.726a10.414,10.414,0,0,0,2.93,6.143L14.965,57.4a6.4,6.4,0,0,1,1.8,3.777l.229,2.073a1.117,1.117,0,0,0,.812.954,26.071,26.071,0,0,0,6.888,1.066,10.938,10.938,0,0,0,6.522-1.821,8.005,8.005,0,0,0,3.277-5.664,1.117,1.117,0,0,0-.5-.993L32.8,56.006a2.935,2.935,0,0,1-1.3-2.132l-.709-6.411a9.105,9.105,0,0,0-1.4-3.929l-4.187-6.478a4.157,4.157,0,0,0-7.44,3.56l1.321,4.011-.52-.281a10.953,10.953,0,0,1-5.059-5.808L10.4,30.218A4.34,4.34,0,0,0,2.19,33.011l2.49,8.083a8.093,8.093,0,0,1,.307,1.494ZM29.913,61.645c-2.261,1.622-5.977,1.831-10.783.611l-.144-1.314c-.009-.071-.032-.141-.042-.212.326.015.69.025,1.09.025,3.034,0,7.9-.558,10.53-3.775a5.128,5.128,0,0,0,1.005.894l.591.392A5.77,5.77,0,0,1,29.913,61.645ZM5.462,29.82A2.107,2.107,0,0,1,8.316,31l3.105,8.317a13.2,13.2,0,0,0,6.089,7L20.5,47.928A1.117,1.117,0,0,0,22.1,46.595l-2.2-6.674a1.923,1.923,0,0,1,3.44-1.647l4.188,6.478a6.869,6.869,0,0,1,1.053,2.961l.708,6.412a5.314,5.314,0,0,0,.123.547C27.223,58.779,20.39,58.6,18.3,58.445a8.592,8.592,0,0,0-1.744-2.608L9.7,48.9a8.16,8.16,0,0,1-2.3-4.824l-.19-1.726a10.537,10.537,0,0,0-.4-1.909L4.327,32.352A2.114,2.114,0,0,1,5.462,29.82Z" transform="translate(0 2.892)" fill="#445866"/>
          <path id="Path_913520" data-name="Path 913520" d="M62.877,27.794A4.338,4.338,0,0,0,57,30.217l-3.105,8.318a10.966,10.966,0,0,1-5.059,5.808l-.52.281,1.322-4a4.157,4.157,0,0,0-7.44-3.561l-4.187,6.478a9.105,9.105,0,0,0-1.4,3.929L35.9,53.88a2.935,2.935,0,0,1-1.3,2.132l-1.191.789a1.117,1.117,0,0,0-.5.993,8.005,8.005,0,0,0,3.277,5.664,10.936,10.936,0,0,0,6.522,1.821A26.124,26.124,0,0,0,49.6,64.212a1.117,1.117,0,0,0,.812-.954l.223-2.073a6.4,6.4,0,0,1,1.8-3.777l6.857-6.945a10.414,10.414,0,0,0,2.93-6.143l.2-1.729a8.093,8.093,0,0,1,.311-1.5l2.485-8.085A4.356,4.356,0,0,0,62.877,27.794ZM48.271,62.259c-4.784,1.213-8.489,1.013-10.752-.589a5.776,5.776,0,0,1-2.281-3.4l.591-.392a5.128,5.128,0,0,0,1.005-.894c2.63,3.218,7.5,3.775,10.53,3.775.4,0,.764-.01,1.09-.025-.01.071-.034.141-.042.212Zm14.8-29.9L60.588,40.44a10.537,10.537,0,0,0-.4,1.909L60,44.074A8.16,8.16,0,0,1,57.7,48.9l-6.857,6.945A8.588,8.588,0,0,0,49.1,58.451c-2.091.159-8.925.335-11.107-3.773a5.25,5.25,0,0,0,.123-.547l.708-6.412a6.869,6.869,0,0,1,1.053-2.961l4.188-6.478a1.923,1.923,0,0,1,3.441,1.647l-2.2,6.67A1.117,1.117,0,0,0,46.9,47.931l2.994-1.618a13.2,13.2,0,0,0,6.089-7L59.089,31a2.106,2.106,0,0,1,3.985,1.355Z" transform="translate(3.613 2.889)" fill="#445866"/>
          <path id="Path_913521" data-name="Path 913521" d="M32.53,21.174h0a2.831,2.831,0,1,1-2.83,2.933,1.1,1.1,0,0,0-1.154-1.079,1.117,1.117,0,0,0-1.079,1.155A5.071,5.071,0,0,0,30.885,28.8a4.9,4.9,0,0,0,.529.135v.753a1.117,1.117,0,1,0,2.234,0v-.736A5.068,5.068,0,0,0,32.531,18.94a2.831,2.831,0,0,1-.015-5.663h.032a2.835,2.835,0,0,1,2.812,2.836,1.117,1.117,0,0,0,2.234,0,5.07,5.07,0,0,0-3.948-4.938v-.758a1.117,1.117,0,0,0-2.234,0v.755a5.062,5.062,0,0,0,1.117,10Z" transform="translate(2.977 0.774)" fill="#445866"/>
          <path id="Path_913522" data-name="Path 913522" d="M34.256,38.98A18.148,18.148,0,1,0,16.108,20.832,18.148,18.148,0,0,0,34.256,38.98Zm0-34.061A15.914,15.914,0,1,1,18.342,20.833,15.914,15.914,0,0,1,34.256,4.919Z" transform="translate(1.649)" fill="#445866"/>
        </g>
      </g>
    </g>
  </g>
</svg>
