<svg xmlns="http://www.w3.org/2000/svg" xmlns:xlink="http://www.w3.org/1999/xlink" width="123.001" height="123" viewBox="0 0 123.001 123">
  <defs>
    <linearGradient id="linear-gradient" x1="0.5" x2="0.5" y2="1" gradientUnits="objectBoundingBox">
      <stop offset="0" stop-color="#ddf1ff"/>
      <stop offset="1" stop-color="#fff"/>
    </linearGradient>
  </defs>
  <g id="img16" transform="translate(-264.668 -6026)">
    <g id="Group_1099808" data-name="Group 1099808" transform="translate(264.668 6026)">
      <g id="Group_1099775" data-name="Group 1099775" transform="translate(0 0)">
        <g id="Group_1099770" data-name="Group 1099770" transform="translate(0 0)">
          <rect id="Rectangle_401345" data-name="Rectangle 401345" width="104.839" height="104.839" transform="translate(9 9.16)" fill="url(#linear-gradient)"/>
          <path id="Subtraction_141" data-name="Subtraction 141" d="M106.183,123,0,106.181,16.822,0,123,16.819,106.183,123v0h0v0ZM23.2,8.788,8.783,99.8,99.8,114.212,114.214,23.2,23.2,8.788Z" transform="translate(0 0)" fill="#8ce2e5"/>
        </g>
      </g>
      <g id="Group_1099776" data-name="Group 1099776" transform="translate(25 24.995)">
        <g id="Group_1099618" data-name="Group 1099618" transform="translate(0 0)">
          <rect id="Rectangle_401104" data-name="Rectangle 401104" width="72.141" height="73.01" transform="translate(0)" fill="none"/>
        </g>
        <path id="Path_913524" data-name="Path 913524" d="M71.719,23.212a.88.88,0,0,0,0-.952,25.4,25.4,0,0,0-10.4-8.877,36.042,36.042,0,0,0-30.492,0,25.392,25.392,0,0,0-10.4,8.878.88.88,0,0,0,0,.952,25.4,25.4,0,0,0,10.4,8.877,35.059,35.059,0,0,0,15.246,3.383,35.08,35.08,0,0,0,15.246-3.383A25.389,25.389,0,0,0,71.719,23.212Zm-1.8-.477C66.394,27.87,60.1,31.59,52.848,33.04a12.327,12.327,0,0,0,0-20.609C60.1,13.883,66.394,17.6,69.923,22.736Zm-13.272,0A10.582,10.582,0,1,1,46.069,12.154,10.594,10.594,0,0,1,56.651,22.736Zm-34.436,0c3.529-5.135,9.827-8.853,17.074-10.3a12.327,12.327,0,0,0,0,20.609C32.042,31.59,25.744,27.87,22.215,22.736Zm23.854,8.151a8.151,8.151,0,1,0-8.151-8.151A8.16,8.16,0,0,0,46.069,30.886Zm0-14.542a6.391,6.391,0,1,1-6.391,6.391A6.4,6.4,0,0,1,46.069,16.344ZM22.624,72.9V66.573a4.2,4.2,0,0,0,3.182-4.085V59.157a7.551,7.551,0,0,0-4.71-6.988,5.109,5.109,0,1,0-5.912,0,7.555,7.555,0,0,0-4.71,6.988v3.331a4.205,4.205,0,0,0,3.182,4.085V72.9C11.355,73.816,10,75.36,10,77.115c0,2.817,3.576,5.023,8.14,5.023s8.14-2.207,8.14-5.023c0-1.755-1.355-3.3-3.657-4.214ZM18.141,44.659a3.347,3.347,0,1,1-3.347,3.347,3.351,3.351,0,0,1,3.347-3.347ZM12.235,62.488V59.157a5.789,5.789,0,0,1,5.783-5.783h.243a5.789,5.789,0,0,1,5.783,5.783v3.331a2.482,2.482,0,0,1-1.422,2.22V57.721a.88.88,0,1,0-1.759,0V75.878a.922.922,0,0,1-1.845,0V64.508a.88.88,0,1,0-1.759,0V75.878a.922.922,0,0,1-1.845,0V57.721a.88.88,0,1,0-1.759,0v6.987a2.487,2.487,0,0,1-1.419-2.22Zm5.906,17.891c-3.761,0-6.381-1.72-6.381-3.264,0-.828.717-1.663,1.9-2.28v1.042a2.678,2.678,0,0,0,4.484,1.981,2.678,2.678,0,0,0,4.484-1.981V74.835c1.18.616,1.9,1.452,1.9,2.28C24.522,78.659,21.9,80.379,18.141,80.379Zm23.1-7.478V66.573a4.2,4.2,0,0,0,3.182-4.085V59.157a7.551,7.551,0,0,0-4.71-6.988,5.107,5.107,0,1,0-5.909,0,7.555,7.555,0,0,0-4.71,6.988v3.331a4.205,4.205,0,0,0,3.182,4.085V72.9c-2.3.915-3.657,2.46-3.657,4.214,0,2.817,3.576,5.023,8.14,5.023s8.14-2.207,8.14-5.023C44.9,75.36,43.544,73.816,41.242,72.9ZM36.76,44.659a3.347,3.347,0,1,1-3.347,3.347,3.351,3.351,0,0,1,3.347-3.347ZM30.854,62.488V59.157a5.789,5.789,0,0,1,5.783-5.783h.243a5.789,5.789,0,0,1,5.783,5.783v3.331a2.482,2.482,0,0,1-1.422,2.22V57.721a.88.88,0,1,0-1.759,0V75.878a.922.922,0,0,1-1.845,0V64.508a.88.88,0,1,0-1.759,0V75.878a.922.922,0,1,1-1.845,0V57.721a.88.88,0,1,0-1.759,0v6.987A2.484,2.484,0,0,1,30.854,62.488ZM36.76,80.379c-3.761,0-6.381-1.72-6.381-3.264,0-.828.717-1.663,1.9-2.28v1.042a2.678,2.678,0,0,0,4.484,1.981,2.678,2.678,0,0,0,4.484-1.981V74.835c1.18.616,1.9,1.452,1.9,2.28C43.14,78.659,40.52,80.379,36.76,80.379Zm23.1-7.478V66.573a4.2,4.2,0,0,0,3.182-4.085V59.157a7.551,7.551,0,0,0-4.71-6.988,5.107,5.107,0,1,0-5.909,0,7.555,7.555,0,0,0-4.71,6.988v3.331A4.205,4.205,0,0,0,50.9,66.573V72.9c-2.3.915-3.657,2.459-3.657,4.214,0,2.817,3.576,5.023,8.14,5.023s8.14-2.207,8.14-5.023c0-1.755-1.358-3.3-3.66-4.214ZM55.378,44.659a3.347,3.347,0,1,1-3.347,3.347,3.351,3.351,0,0,1,3.347-3.347Zm-5.9,17.829V59.157a5.789,5.789,0,0,1,5.783-5.783H55.5a5.789,5.789,0,0,1,5.783,5.783v3.331a2.482,2.482,0,0,1-1.422,2.22V57.721a.88.88,0,1,0-1.759,0V75.878a.922.922,0,0,1-1.845,0V64.508a.88.88,0,1,0-1.759,0V75.878a.922.922,0,1,1-1.845,0V57.721a.88.88,0,0,0-1.759,0v6.987a2.484,2.484,0,0,1-1.419-2.22Zm5.9,17.891c-3.761,0-6.381-1.72-6.381-3.264,0-.828.717-1.663,1.9-2.28v1.042a2.678,2.678,0,0,0,4.484,1.981,2.678,2.678,0,0,0,4.484-1.981V74.835c1.18.616,1.9,1.452,1.9,2.28,0,1.544-2.62,3.264-6.381,3.264Zm23.1-7.478V66.573a4.2,4.2,0,0,0,3.182-4.085V59.157a7.551,7.551,0,0,0-4.71-6.988,5.107,5.107,0,1,0-5.909,0,7.555,7.555,0,0,0-4.71,6.988v3.331a4.205,4.205,0,0,0,3.182,4.085V72.9c-2.3.915-3.657,2.459-3.657,4.214,0,2.817,3.576,5.023,8.14,5.023s8.14-2.207,8.14-5.023C82.138,75.36,80.784,73.816,78.482,72.9ZM74,44.659a3.347,3.347,0,1,1-3.347,3.347A3.351,3.351,0,0,1,74,44.659Zm-5.9,17.829V59.157a5.789,5.789,0,0,1,5.783-5.783h.243A5.789,5.789,0,0,1,79.9,59.157v3.331a2.482,2.482,0,0,1-1.422,2.22V57.721a.88.88,0,1,0-1.759,0V75.878a.922.922,0,0,1-1.845,0V64.508a.88.88,0,1,0-1.759,0V75.878a.922.922,0,0,1-1.845,0V57.721a.88.88,0,1,0-1.759,0v6.987a2.484,2.484,0,0,1-1.419-2.22ZM74,80.379c-3.761,0-6.381-1.72-6.381-3.264,0-.828.717-1.663,1.9-2.28v1.042A2.678,2.678,0,0,0,74,77.858a2.678,2.678,0,0,0,4.484-1.981V74.835c1.18.616,1.9,1.452,1.9,2.28,0,1.544-2.62,3.264-6.381,3.264ZM69.683,41.316a.879.879,0,1,1-1.128,1.349l-8.183-6.836a.88.88,0,0,1,1.128-1.35ZM53.431,37.2l1.259,2.847a.879.879,0,0,1-1.608.711l-1.259-2.847a.879.879,0,0,1,1.608-.711ZM22.346,42.555a.879.879,0,0,1,.111-1.239L30.64,34.48a.88.88,0,1,1,1.128,1.35l-8.183,6.836a.878.878,0,0,1-1.239-.111ZM37.9,41.209a.879.879,0,0,1-.449-1.16L38.707,37.2a.88.88,0,0,1,1.61.711L39.058,40.76a.882.882,0,0,1-1.161.449Z" transform="translate(-10.001 -9.564)" fill="#445866"/>
      </g>
    </g>
  </g>
</svg>
