<svg xmlns="http://www.w3.org/2000/svg" width="139" height="138.999" viewBox="0 0 139 138.999">
  <g id="img12" transform="translate(-1041.578 -7380.396)">
    <g id="Group_1099773" data-name="Group 1099773" transform="translate(461.578 1763.557)">
      <g id="Group_1099770" data-name="Group 1099770" transform="translate(580 5616.839)">
        <rect id="Rectangle_401345" data-name="Rectangle 401345" width="120.838" height="120.838" transform="translate(9 9.161)" fill="#fff"/>
        <path id="Subtraction_141" data-name="Subtraction 141" d="M119.994,139,0,119.993,19.01,0,139,19.008,119.994,139v0h0v0ZM26.221,9.932,9.926,112.779l102.854,16.29L129.07,26.218,26.219,9.932Z" fill="#59c4c8"/>
      </g>
    </g>
    <g id="Group_1099774" data-name="Group 1099774" transform="translate(1070.578 7407.791)">
      <g id="Group_1099618" data-name="Group 1099618" transform="translate(0 0)">
        <rect id="Rectangle_401104" data-name="Rectangle 401104" width="81.642" height="82.626" fill="none"/>
      </g>
      <g id="Group_1122191" data-name="Group 1122191" transform="translate(-44.636 0.001)">
        <path id="Path_912225" data-name="Path 912225" d="M227.609,211.9a1.21,1.21,0,0,0,1.21-1.21v-1.4a4.666,4.666,0,0,0,4.257-4.39c0-2.395-1.323-3.907-4.046-4.625-2.458-.647-3.743-1.722-3.743-2.45a2.379,2.379,0,0,1,2.55-2.006,4.686,4.686,0,0,1,2.923,1.311,1.21,1.21,0,0,0,1.74-1.683,7.427,7.427,0,0,0-3.68-1.96v-1.4a1.21,1.21,0,0,0-2.421,0v1.5a4.6,4.6,0,0,0-3.532,4.229c0,2.115,2.022,3.862,5.547,4.79,2.069.545,2.242,1.427,2.242,2.284,0,.829-.8,2.063-3.016,2.063a3.929,3.929,0,0,1-3.257-1.578,1.21,1.21,0,1,0-2.062,1.268,6.292,6.292,0,0,0,4.077,2.621v1.417a1.21,1.21,0,0,0,1.21,1.21Z" transform="translate(-142.148 -160.08)" fill="#445866"/>
        <path id="Path_912226" data-name="Path 912226" d="M110.8,58.292l-13.7,4.054A4.5,4.5,0,0,0,94.033,58.5c-.844-.337-1.615-.646-2.326-.932A17.354,17.354,0,0,0,102.61,44.3a1.21,1.21,0,1,0-2.385-.413A14.939,14.939,0,0,1,88.017,56.083C82.786,54,82.681,54.176,77.909,54.261a14.991,14.991,0,0,1,5-27.719c3.473,1.386,4.665,1.773,6.265,1.84H89.2c.53.021,3.094-.006,3.816-.019a14.924,14.924,0,0,1,7.2,10.3,1.21,1.21,0,1,0,2.383-.425,17.307,17.307,0,0,0-5.752-10.1,15.98,15.98,0,0,0,4.834-1.477,32.09,32.09,0,0,0,5.331-3.032,10.119,10.119,0,0,1,1.394-.821,3.243,3.243,0,0,0,4.2,1.41l3.728-1.71a3.323,3.323,0,0,0,1.636-4.409L110.56,1.94A3.326,3.326,0,0,0,106.151.3l-3.728,1.71a3.244,3.244,0,0,0-1.594,4.3l.318.693L98.231,8.108A12.762,12.762,0,0,1,89.8,8.2c-.041-.016-5.744-2.294-5.786-2.308a10.461,10.461,0,0,0-8.031.478L56,15.21l-.063.03c-1.769.907-4.358,3.361-2.842,6.806l.016.035c1.24,2.59,3.926,3.453,7.011,2.251l13.7-4.054a4.5,4.5,0,0,0,3.062,3.846c.846.338,1.619.648,2.331.934a17.408,17.408,0,0,0-5.137,29.427,15.966,15.966,0,0,0-4.84,1.478A32.092,32.092,0,0,0,63.911,59a10.13,10.13,0,0,1-1.4.822,3.231,3.231,0,0,0-4.2-1.411l-3.728,1.71a3.323,3.323,0,0,0-1.636,4.409l7.411,16.159A3.323,3.323,0,0,0,64.77,82.32L68.5,80.61a3.244,3.244,0,0,0,1.594-4.3l-.318-.692,2.915-1.107a12.763,12.763,0,0,1,8.432-.095l5.731,2.288.054.02a10.374,10.374,0,0,0,8.031-.477l6.991-3.092a1.21,1.21,0,1,0-.979-2.214l-7.005,3.1-.017.008-.061.029a8.011,8.011,0,0,1-6.144.368l-5.7-2.277a15,15,0,0,0-10.106.05l-.055.019-3.095,1.175-5.23-11.4A12.551,12.551,0,0,0,65.3,60.976a29.656,29.656,0,0,1,4.928-2.8c2.513-1.125,3.68-1.406,7.39-1.486h0c4.173-.091,4.587-.041,5.549.212a42.061,42.061,0,0,1,4.254,1.555h0c1.453.582,3.317,1.339,5.706,2.293A2.169,2.169,0,0,1,94.65,62.4a2.905,2.905,0,0,1-.066,1.217,1.557,1.557,0,0,1-2.006,1.189c-2.635-.645-8.913-2.157-8.976-2.172a1.21,1.21,0,1,0-.567,2.353c.063.015,6.336,1.526,8.967,2.17a3.931,3.931,0,0,0,4.629-2.155c15.461-4.574,14.893-4.4,15.04-4.458,1.324-.517,3.081-.757,3.945,1.022.915,2.113-1.2,3.376-1.711,3.644l-7.786,3.444a1.21,1.21,0,1,0,.979,2.214c.05-.022,7.833-3.463,7.883-3.489,6.226-3.193,2.8-11.812-4.184-9.093ZM103.432,4.214,107.16,2.5a.905.905,0,0,1,1.2.445l7.411,16.159a.905.905,0,0,1-.445,1.2l-3.728,1.71a.82.82,0,0,1-1.086-.4L103.029,5.3a.82.82,0,0,1,.4-1.086ZM77.786,21.877a2.17,2.17,0,0,1-1.515-1.657c-.228-1.3.506-2.79,2.072-2.407,2.635.646,8.913,2.157,8.976,2.172a1.21,1.21,0,1,0,.567-2.353c-.063-.015-6.336-1.526-8.967-2.17a3.938,3.938,0,0,0-4.628,2.155l-14.9,4.408c-.027.008-.054.017-.081.027l-.06.023c-1.323.517-3.08.757-3.945-1.022-.915-2.113,1.2-3.376,1.711-3.644L76.977,8.579l.017-.008.061-.029A8.011,8.011,0,0,1,83.2,8.174l5.7,2.277a15,15,0,0,0,10.106-.05l.055-.019,3.095-1.175,5.23,11.4a12.54,12.54,0,0,0-1.769,1.039,29.656,29.656,0,0,1-4.928,2.8c-2.591,1.16-3.75,1.42-7.71,1.492-1.278.024-3.457.028-3.448.028a6.993,6.993,0,0,1-1.808-.252C86.168,25.3,83.657,24.221,77.786,21.877ZM67.892,77.324a.82.82,0,0,1-.4,1.086l-3.728,1.71a.9.9,0,0,1-1.2-.445L55.15,63.516a.9.9,0,0,1,.445-1.2l3.728-1.71a.819.819,0,0,1,1.086.4Z" transform="translate(0 0)" fill="#445866"/>
      </g>
    </g>
  </g>
</svg>
