<svg xmlns="http://www.w3.org/2000/svg" xmlns:xlink="http://www.w3.org/1999/xlink" width="123.001" height="123" viewBox="0 0 123.001 123">
  <defs>
    <linearGradient id="linear-gradient" x1="0.5" x2="0.5" y2="1" gradientUnits="objectBoundingBox">
      <stop offset="0" stop-color="#ddf1ff"/>
      <stop offset="1" stop-color="#fff"/>
    </linearGradient>
  </defs>
  <g id="img17" transform="translate(-264.668 -6026)">
    <g id="Group_1099808" data-name="Group 1099808" transform="translate(264.668 6026)">
      <g id="Group_1099775" data-name="Group 1099775" transform="translate(0 0)">
        <g id="Group_1099770" data-name="Group 1099770" transform="translate(0 0)">
          <rect id="Rectangle_401345" data-name="Rectangle 401345" width="104.839" height="104.839" transform="translate(9 9.16)" fill="url(#linear-gradient)"/>
          <path id="Subtraction_141" data-name="Subtraction 141" d="M106.183,123,0,106.181,16.822,0,123,16.819,106.183,123v0h0v0ZM23.2,8.788,8.783,99.8,99.8,114.212,114.214,23.2,23.2,8.788Z" transform="translate(0 0)" fill="#8ce2e5"/>
        </g>
      </g>
      <g id="Group_1099776" data-name="Group 1099776" transform="translate(25 24.995)">
        <g id="Group_1099618" data-name="Group 1099618" transform="translate(0 0)">
          <rect id="Rectangle_401104" data-name="Rectangle 401104" width="72.141" height="73.01" transform="translate(0)" fill="none"/>
        </g>
        <g id="Layer_x0020_1" transform="translate(-1 -0.565)">
          <path id="Path_913505" data-name="Path 913505" d="M1231.827,1255.644a23.822,23.822,0,1,1,23.817-23.817A23.848,23.848,0,0,1,1231.827,1255.644Zm0-45.959a22.137,22.137,0,1,0,22.132,22.143A22.17,22.17,0,0,0,1231.827,1209.684Z" transform="translate(-1194.751 -1194.751)" fill="#445866" fill-rule="evenodd"/>
          <path id="Path_913506" data-name="Path 913506" d="M2343.926,1255.149c-3.43,0-6.606-2.547-8.94-7.195-4.647-9.214-4.647-24.04,0-33.254,4.831-9.6,13.04-9.6,17.881,0,4.637,9.214,4.637,24.04,0,33.254C2350.522,1252.6,2347.346,1255.149,2343.926,1255.149Zm0-45.959c-2.76,0-5.4,2.222-7.438,6.271-4.4,8.737-4.4,22.995,0,31.732,4.212,8.362,10.655,8.362,14.866,0,4.4-8.737,4.4-22.995,0-31.732C2349.314,1211.422,2346.676,1209.19,2343.926,1209.19Z" transform="translate(-2306.851 -1194.257)" fill="#445866" fill-rule="evenodd"/>
          <path id="Path_913507" data-name="Path 913507" d="M3472.853,1255.644a.849.849,0,0,1-.853-.842v-45.959a.849.849,0,0,1,.853-.842.84.84,0,0,1,.842.842V1254.8A.84.84,0,0,1,3472.853,1255.644Z" transform="translate(-3435.777 -1194.751)" fill="#445866" fill-rule="evenodd"/>
          <path id="Path_913508" data-name="Path 913508" d="M1230.59,2356.1a37.706,37.706,0,0,1-16.632-3.491c-9.61-4.831-9.61-13.04,0-17.88,9.214-4.637,24.04-4.637,33.254,0,9.61,4.84,9.61,13.04,0,17.88A37.69,37.69,0,0,1,1230.59,2356.1Zm0-23.157a36.192,36.192,0,0,0-15.871,3.3c-8.362,4.211-8.362,10.655,0,14.867,8.737,4.4,22.995,4.4,31.732,0,8.362-4.212,8.362-10.655,0-14.867A36.177,36.177,0,0,0,1230.59,2332.942Z" transform="translate(-1193.514 -2306.603)" fill="#445866" fill-rule="evenodd"/>
          <path id="Path_913509" data-name="Path 913509" d="M1254.8,3473.695h-45.959a.84.84,0,0,1-.842-.842.849.849,0,0,1,.842-.853H1254.8a.849.849,0,0,1,.842.853A.84.84,0,0,1,1254.8,3473.695Z" transform="translate(-1194.751 -3435.777)" fill="#445866" fill-rule="evenodd"/>
          <path id="Path_913510" data-name="Path 913510" d="M456.98,492.771h-.112a32.057,32.057,0,0,1-15.283-6.332.844.844,0,0,1-.112-1.228,3.244,3.244,0,0,0-4.577-4.577.837.837,0,0,1-1.228-.122,31.907,31.907,0,0,1-6.322-15.272.838.838,0,0,1,.781-.954,3.239,3.239,0,0,0,0-6.464.845.845,0,0,1-.792-.954,32.058,32.058,0,0,1,6.332-15.283.854.854,0,0,1,1.228-.122,3.24,3.24,0,0,0,4.577-4.567.845.845,0,0,1,.122-1.228,31.922,31.922,0,0,1,15.272-6.332.852.852,0,0,1,.954.792,3.239,3.239,0,0,0,6.464,0,.851.851,0,0,1,.954-.792,32.058,32.058,0,0,1,15.283,6.332.853.853,0,0,1,.122,1.228,3.24,3.24,0,0,0,4.567,4.577.844.844,0,0,1,1.228.112,32.1,32.1,0,0,1,6.332,15.283.852.852,0,0,1-.792.954,3.239,3.239,0,0,0,0,6.464.846.846,0,0,1,.792.954,31.98,31.98,0,0,1-6.332,15.272.837.837,0,0,1-1.228.122,3.244,3.244,0,0,0-4.577,4.577.825.825,0,0,1-.122,1.218,31.822,31.822,0,0,1-15.272,6.332.838.838,0,0,1-.954-.781,3.239,3.239,0,0,0-6.464,0A.844.844,0,0,1,456.98,492.771Zm-13.7-7.185a30.2,30.2,0,0,0,13,5.388,4.929,4.929,0,0,1,9.549,0,30.2,30.2,0,0,0,13-5.388,4.935,4.935,0,0,1,6.758-6.758,30.2,30.2,0,0,0,5.388-13,4.929,4.929,0,0,1,0-9.549,30.2,30.2,0,0,0-5.388-13,4.935,4.935,0,0,1-6.758-6.758,30.2,30.2,0,0,0-13-5.389,4.926,4.926,0,0,1-9.549,0,30.2,30.2,0,0,0-13,5.389,4.935,4.935,0,0,1-6.758,6.758,30.2,30.2,0,0,0-5.389,13,4.926,4.926,0,0,1,0,9.549,30.2,30.2,0,0,0,5.389,13,4.935,4.935,0,0,1,6.758,6.758Z" transform="translate(-423.984 -423.984)" fill="#445866" fill-rule="evenodd"/>
          <path id="Path_913511" data-name="Path 913511" d="M3074.932,10.864a4.932,4.932,0,1,1,4.922-4.932A4.937,4.937,0,0,1,3074.932,10.864Zm0-8.169a3.237,3.237,0,1,0,3.237,3.237A3.239,3.239,0,0,0,3074.932,2.695Z" transform="translate(-3037.856)" fill="#445866" fill-rule="evenodd"/>
          <path id="Path_913512" data-name="Path 913512" d="M5244.922,909.854a4.927,4.927,0,1,1,3.491-1.441A4.92,4.92,0,0,1,5244.922,909.854Zm0-8.159a3.235,3.235,0,1,0,2.293,5.52A3.235,3.235,0,0,0,5244.922,901.695Z" transform="translate(-5185.835 -889.877)" fill="#445866" fill-rule="evenodd"/>
          <path id="Path_913513" data-name="Path 913513" d="M6143.921,3079.853a4.927,4.927,0,1,1,4.932-4.922A4.926,4.926,0,0,1,6143.921,3079.853Zm0-8.159a3.237,3.237,0,1,0,3.237,3.237A3.239,3.239,0,0,0,6143.921,3071.695Z" transform="translate(-6075.713 -3037.856)" fill="#445866" fill-rule="evenodd"/>
          <path id="Path_913514" data-name="Path 913514" d="M5244.427,5249.359a4.927,4.927,0,1,1,3.491-1.441A4.929,4.929,0,0,1,5244.427,5249.359Zm0-8.169a3.238,3.238,0,1,0,2.293,5.53A3.243,3.243,0,0,0,5244.427,5241.19Z" transform="translate(-5185.341 -5185.341)" fill="#445866" fill-rule="evenodd"/>
          <path id="Path_913515" data-name="Path 913515" d="M3074.932,6148.854a4.927,4.927,0,1,1,4.922-4.932A4.937,4.937,0,0,1,3074.932,6148.854Zm0-8.169a3.237,3.237,0,1,0,3.237,3.237A3.239,3.239,0,0,0,3074.932,6140.685Z" transform="translate(-3037.856 -6075.713)" fill="#445866" fill-rule="evenodd"/>
          <path id="Path_913516" data-name="Path 913516" d="M905.179,5249.359a4.927,4.927,0,1,1,3.481-1.441A4.937,4.937,0,0,1,905.179,5249.359Zm0-8.169a3.239,3.239,0,1,0,2.283,5.53A3.246,3.246,0,0,0,905.179,5241.19Z" transform="translate(-890.125 -5185.341)" fill="#445866" fill-rule="evenodd"/>
          <path id="Path_913517" data-name="Path 913517" d="M5.932,3079.853a4.927,4.927,0,1,1,4.932-4.922A4.935,4.935,0,0,1,5.932,3079.853Zm0-8.159a3.237,3.237,0,1,0,3.237,3.237A3.239,3.239,0,0,0,5.932,3071.695Z" transform="translate(0 -3037.856)" fill="#445866" fill-rule="evenodd"/>
          <path id="Path_913518" data-name="Path 913518" d="M905.179,910.1a4.927,4.927,0,1,1,3.481-1.441A4.9,4.9,0,0,1,905.179,910.1Zm-2.293-7.215a3.239,3.239,0,1,0,4.577,0A3.246,3.246,0,0,0,902.886,902.886Z" transform="translate(-890.125 -890.125)" fill="#445866" fill-rule="evenodd"/>
        </g>
      </g>
    </g>
  </g>
</svg>
