<svg xmlns="http://www.w3.org/2000/svg" xmlns:xlink="http://www.w3.org/1999/xlink" width="366.151" height="99.019" viewBox="0 0 366.151 99.019">
  <defs>
    <clipPath id="clip-path">
      <rect id="Rectangle_410882" data-name="Rectangle 410882" width="226.661" height="99.018" fill="none"/>
    </clipPath>
    <clipPath id="clip-path-3">
      <rect id="Rectangle_410853" data-name="Rectangle 410853" width="2.739" height="5.568" fill="none"/>
    </clipPath>
    <clipPath id="clip-path-4">
      <rect id="Rectangle_410854" data-name="Rectangle 410854" width="2.738" height="5.568" fill="none"/>
    </clipPath>
    <clipPath id="clip-path-5">
      <rect id="Rectangle_410855" data-name="Rectangle 410855" width="3.804" height="1.312" fill="none"/>
    </clipPath>
    <clipPath id="clip-path-6">
      <rect id="Rectangle_410856" data-name="Rectangle 410856" width="3.28" height="13.787" fill="none"/>
    </clipPath>
    <clipPath id="clip-path-7">
      <rect id="Rectangle_410858" data-name="Rectangle 410858" width="3.278" height="13.788" fill="none"/>
    </clipPath>
    <clipPath id="clip-path-8">
      <rect id="Rectangle_410861" data-name="Rectangle 410861" width="3.291" height="28.492" fill="none"/>
    </clipPath>
    <clipPath id="clip-path-9">
      <rect id="Rectangle_410862" data-name="Rectangle 410862" width="2.77" height="5.634" fill="none"/>
    </clipPath>
    <clipPath id="clip-path-11">
      <rect id="Rectangle_410864" data-name="Rectangle 410864" width="19.325" height="7.068" fill="none"/>
    </clipPath>
    <clipPath id="clip-path-12">
      <rect id="Rectangle_410865" data-name="Rectangle 410865" width="3.318" height="13.949" fill="none"/>
    </clipPath>
    <clipPath id="clip-path-14">
      <rect id="Rectangle_410870" data-name="Rectangle 410870" width="5.649" height="36.708" fill="none"/>
    </clipPath>
    <clipPath id="clip-path-15">
      <rect id="Rectangle_410871" data-name="Rectangle 410871" width="13.443" height="34.749" fill="none"/>
    </clipPath>
    <clipPath id="clip-path-16">
      <rect id="Rectangle_410872" data-name="Rectangle 410872" width="13.444" height="34.749" fill="none"/>
    </clipPath>
    <clipPath id="clip-path-17">
      <rect id="Rectangle_410873" data-name="Rectangle 410873" width="3.33" height="13.998" fill="none"/>
    </clipPath>
    <clipPath id="clip-path-18">
      <rect id="Rectangle_410875" data-name="Rectangle 410875" width="3.331" height="13.998" fill="none"/>
    </clipPath>
    <clipPath id="clip-path-19">
      <rect id="Rectangle_410877" data-name="Rectangle 410877" width="6.128" height="3.399" fill="none"/>
    </clipPath>
    <clipPath id="clip-path-21">
      <rect id="Rectangle_410879" data-name="Rectangle 410879" width="33.729" height="18.892" fill="none"/>
    </clipPath>
  </defs>
  <g id="img3" transform="translate(-810 -3787.256)">
    <rect id="Rectangle_401121" data-name="Rectangle 401121" width="366.151" height="37.409" rx="18.705" transform="translate(810 3848.865)" fill="#8ce2e5"/>
    <rect id="Rectangle_410572" data-name="Rectangle 410572" width="343.924" height="66.382" transform="translate(810 3810.599)" fill="none"/>
    <g id="Group_1122585" data-name="Group 1122585" transform="translate(879.745 3787.256)">
      <g id="Group_1122584" data-name="Group 1122584" clip-path="url(#clip-path)">
        <g id="Group_1122583" data-name="Group 1122583">
          <g id="Group_1122582" data-name="Group 1122582" clip-path="url(#clip-path)">
            <path id="Path_913546" data-name="Path 913546" d="M260.6,131.9V121.67a2.08,2.08,0,0,0-2.079-2.079h-12a2.078,2.078,0,0,0-2.079,2.079V131.9Z" transform="translate(-67.209 -32.881)" fill="#262226"/>
            <path id="Path_913547" data-name="Path 913547" d="M271.926,17.274S278.9,42.23,273.739,55.7c0,0-9.292,3.946-16.838,2.623l.038-39.952Z" transform="translate(-70.634 -4.749)" fill="#3f221c"/>
            <path id="Path_913548" data-name="Path 913548" d="M275.511,45.4c-.082-1.355-.194-2.7-.334-4.02h-7.153l-8.636,13.234s-1.208.981-2.475,2.23L256.9,62a25.832,25.832,0,0,0,3.692-.763c14.025-3.778,14.242-14.776,14.242-14.776Z" transform="translate(-70.635 -11.378)" fill="#2b1a17"/>
            <path id="Path_913549" data-name="Path 913549" d="M234.3,14.755S224.213,35.8,231.322,55c0,0,9.292,3.946,16.838,2.623l-.038-39.951Z" transform="translate(-62.904 -4.057)" fill="#3f221c"/>
            <path id="Path_913550" data-name="Path 913550" d="M265.416,120.235c1-17.182,6.2-36.464,6.02-37.3,0,0-14.418-4.612-16.839-5.766l-6.69,1.125-6.388-1.125c-1.829.872-10.676,3.717-14.891,5.056V93.879a195.478,195.478,0,0,1,3.772,26.356Z" transform="translate(-62.311 -21.216)" fill="#ee84aa"/>
            <path id="Path_913551" data-name="Path 913551" d="M257.308,63.5l-4.263,1.114L248.783,63.5s-.422,8.915-4.021,12.443c0,0,8.079,8.532,8.711,8.565,1.294,0,7.856-8.565,7.856-8.565-3.6-3.529-4.021-12.443-4.021-12.443" transform="translate(-67.297 -17.46)" fill="#d99a74"/>
            <path id="Path_913552" data-name="Path 913552" d="M249.171,69.207a26.991,26.991,0,0,0,10.906,2.539,32.7,32.7,0,0,1-1.545-7.978l-4.273.922-4.275-.922a35.57,35.57,0,0,1-.812,5.439" transform="translate(-68.509 -17.533)" fill="#ca8053"/>
            <path id="Path_913553" data-name="Path 913553" d="M235.391,38.992c.177,2.378-.856,4.394-2.309,4.5s-2.773-1.731-2.95-4.11.856-4.392,2.307-4.5,2.775,1.732,2.952,4.11" transform="translate(-63.269 -9.589)" fill="#d58759"/>
            <g id="Group_1122527" data-name="Group 1122527" transform="translate(167.828 27.007)" opacity="0.6">
              <g id="Group_1122526" data-name="Group 1122526">
                <g id="Group_1122525" data-name="Group 1122525" clip-path="url(#clip-path-3)">
                  <path id="Path_913554" data-name="Path 913554" d="M231.47,38.874s.012.67.376.756a1.435,1.435,0,0,1,1.006-1.669s-.832.475-.69,2.505a1.437,1.437,0,0,1,1.241-1.252s-1.813,1.526-.268,2.532c0,0-.054,1.043-1.019.284,0,0,1.429,2.083,1.816-.526,0,0-1.779-.5-.231-1.188l.471-.18s.381-2.956-1.321-2.885-1.246,2.463-1.381,1.623" transform="translate(-231.47 -37.249)" fill="#b25f44"/>
                </g>
              </g>
            </g>
            <path id="Path_913555" data-name="Path 913555" d="M231.457,39.207a2.044,2.044,0,0,1,.383-1.533c.069-.126.206-.185.307-.28a.98.98,0,0,1,.365-.2,1.544,1.544,0,0,1,.407-.132c.066-.007.128-.018.2-.021l.24.036a.926.926,0,0,1,.394.232,1.3,1.3,0,0,1,.262.352,2.981,2.981,0,0,1,.268.788,6.377,6.377,0,0,1,.105.806,7.059,7.059,0,0,1,.009.8l-.007.127-.114.033a4.082,4.082,0,0,0-.575.212,1.885,1.885,0,0,0-.26.143.63.63,0,0,0-.189.171c-.033.03-.016.052-.036.077.02.022-.009.041.025.07s.028.059.071.085l.1.085a4.077,4.077,0,0,0,.55.256l.109.046-.018.1a3.046,3.046,0,0,1-.249.8,1.258,1.258,0,0,1-.245.357.572.572,0,0,1-.183.136.6.6,0,0,1-.227.063,1.313,1.313,0,0,1-.226-.036l-.191-.1a1.143,1.143,0,0,1-.162-.131.952.952,0,0,1-.148-.143,3.754,3.754,0,0,1-.255-.315l-.219-.337a6.1,6.1,0,0,0,.539.585.863.863,0,0,0,.153.12,1.01,1.01,0,0,0,.16.105l.17.07c.058,0,.115.014.169.011.22-.028.372-.249.465-.476a2.811,2.811,0,0,0,.183-.74l.091.146a3.186,3.186,0,0,1-.621-.267.906.906,0,0,1-.281-.273c-.049-.05-.051-.154-.063-.232a.535.535,0,0,1,.078-.22.911.911,0,0,1,.272-.267,2.118,2.118,0,0,1,.3-.173,4.3,4.3,0,0,1,.623-.244l-.121.16c.005-.272.009-.521,0-.782a6.213,6.213,0,0,0-.083-.765,2.72,2.72,0,0,0-.225-.711,1.036,1.036,0,0,0-.2-.284.736.736,0,0,0-.27-.181c-.049-.01-.1-.023-.148-.038s-.131.007-.2.009a1.442,1.442,0,0,0-.348.094.83.83,0,0,0-.335.154c-.093.08-.224.122-.289.232a1.734,1.734,0,0,0-.228.3,1.852,1.852,0,0,0-.157.35,2.546,2.546,0,0,0-.125.771" transform="translate(-63.633 -10.185)" fill="#a25532"/>
            <path id="Path_913556" data-name="Path 913556" d="M232.359,40.287a3.594,3.594,0,0,1-.018-.534,2.727,2.727,0,0,1,.277-1.16,1.48,1.48,0,0,1,.441-.507.95.95,0,0,1,.279-.154.886.886,0,0,1,.273-.085,2.548,2.548,0,0,1,.58-.045l-.047.4a2.28,2.28,0,0,0-.478-.02.639.639,0,0,0-.224.041.687.687,0,0,0-.235.1,1.236,1.236,0,0,0-.418.381,2.612,2.612,0,0,0-.385,1.061,3.484,3.484,0,0,0-.044.528" transform="translate(-63.881 -10.394)" fill="#a25532"/>
            <path id="Path_913557" data-name="Path 913557" d="M275.085,38.992c-.178,2.378.854,4.394,2.307,4.5s2.773-1.731,2.95-4.11-.856-4.392-2.309-4.5-2.773,1.732-2.948,4.11" transform="translate(-75.629 -9.589)" fill="#d58759"/>
            <g id="Group_1122530" data-name="Group 1122530" transform="translate(201.013 27.007)" opacity="0.6">
              <g id="Group_1122529" data-name="Group 1122529">
                <g id="Group_1122528" data-name="Group 1122528" clip-path="url(#clip-path-4)">
                  <path id="Path_913558" data-name="Path 913558" d="M279.977,38.874s-.01.67-.378.756a1.429,1.429,0,0,0-1-1.669s.834.475.691,2.505a1.437,1.437,0,0,0-1.24-1.252s1.813,1.526.266,2.532c0,0,.055,1.043,1.019.284,0,0-1.431,2.083-1.815-.526,0,0,1.779-.5.23-1.188l-.471-.18s-.381-2.956,1.319-2.885,1.248,2.463,1.383,1.623" transform="translate(-277.239 -37.249)" fill="#b25f44"/>
                </g>
              </g>
            </g>
            <path id="Path_913559" data-name="Path 913559" d="M279.9,39.207a2.542,2.542,0,0,0-.125-.771,1.817,1.817,0,0,0-.157-.351,1.692,1.692,0,0,0-.228-.3c-.065-.11-.2-.152-.289-.231a.826.826,0,0,0-.335-.155,1.461,1.461,0,0,0-.347-.094c-.065,0-.134-.01-.2-.009a1.506,1.506,0,0,1-.149.039.746.746,0,0,0-.269.181,1,1,0,0,0-.2.284,2.7,2.7,0,0,0-.225.711,6.365,6.365,0,0,0-.083.765c-.011.261-.007.51,0,.782l-.121-.16a4.344,4.344,0,0,1,.624.244,2.228,2.228,0,0,1,.3.173.919.919,0,0,1,.272.267.552.552,0,0,1,.077.22c-.012.078-.014.181-.063.231a.9.9,0,0,1-.281.273,3.167,3.167,0,0,1-.621.267l.091-.146a2.811,2.811,0,0,0,.183.74c.094.228.246.448.465.476.054,0,.112-.009.17-.011l.17-.07a1.1,1.1,0,0,0,.16-.105.867.867,0,0,0,.153-.12,6,6,0,0,0,.539-.584l-.219.337a3.9,3.9,0,0,1-.255.315,1.023,1.023,0,0,1-.148.143,1.231,1.231,0,0,1-.162.131l-.191.1a1.313,1.313,0,0,1-.226.036.638.638,0,0,1-.411-.2,1.257,1.257,0,0,1-.244-.357,3.042,3.042,0,0,1-.249-.8l-.018-.1.109-.046a4.164,4.164,0,0,0,.55-.256l.1-.085c.043-.026.047-.059.071-.085s.005-.049.025-.07c-.02-.025,0-.046-.035-.077a.65.65,0,0,0-.189-.171,1.931,1.931,0,0,0-.26-.143,4.083,4.083,0,0,0-.575-.212l-.114-.033-.007-.127a7.218,7.218,0,0,1,.008-.8,6.647,6.647,0,0,1,.1-.807,2.981,2.981,0,0,1,.268-.788,1.285,1.285,0,0,1,.262-.352.927.927,0,0,1,.394-.233l.24-.036c.07,0,.133.015.2.022a1.589,1.589,0,0,1,.408.132.972.972,0,0,1,.365.2c.1.095.24.154.308.28a2.044,2.044,0,0,1,.383,1.533" transform="translate(-76.149 -10.185)" fill="#a25532"/>
            <path id="Path_913560" data-name="Path 913560" d="M279.423,40.287a3.492,3.492,0,0,0-.044-.528,2.613,2.613,0,0,0-.385-1.061,1.239,1.239,0,0,0-.418-.381.715.715,0,0,0-.236-.1.65.65,0,0,0-.223-.041,2.275,2.275,0,0,0-.478.02l-.048-.4a2.553,2.553,0,0,1,.581.045.886.886,0,0,1,.273.085.951.951,0,0,1,.279.154,1.474,1.474,0,0,1,.441.507,2.727,2.727,0,0,1,.277,1.16,3.484,3.484,0,0,1-.018.534" transform="translate(-76.323 -10.394)" fill="#a25532"/>
            <path id="Path_913561" data-name="Path 913561" d="M265.1,32.785a26.732,26.732,0,0,1-1.164,8.081c-1.994,6.887-8.756,12.344-13.19,12.344-4.5,0-11.32-5.644-13.276-12.644a26.445,26.445,0,0,1-1.078-7.781c0-8.921-.151-20.6,14.355-20.6S265.1,23.864,265.1,32.785" transform="translate(-64.994 -3.351)" fill="#f1b288"/>
            <path id="Path_913562" data-name="Path 913562" d="M264.146,34.38s.464-1.35.945-3.386c-.009-.945-.03-1.9-.081-2.86-3.517-2.721-5.2-10.389-5.708-13.178-.157-.1-.321-.2-.489-.3-4.826,10.5-19.474,10.761-22.076,10.528a51.444,51.444,0,0,0-.342,6.28,25.977,25.977,0,0,0,21.344-11.156s.655,12.352,6.409,14.068" transform="translate(-64.996 -4.03)" fill="#d99a74"/>
            <path id="Path_913563" data-name="Path 913563" d="M262.571,17.207c2.6,4.2,2.556,10.143,2.556,15.2a26.74,26.74,0,0,1-1.164,8.082c-1.995,6.888-8.756,12.344-13.191,12.344-2.8,0-6.49-2.182-9.357-5.515,2.965,4.3,7.447,7.271,10.71,7.271,4.434,0,11.2-5.457,13.189-12.345a26.73,26.73,0,0,0,1.164-8.081c0-5.815.062-12.8-3.909-16.958" transform="translate(-66.377 -4.731)" fill="#d99a74"/>
            <path id="Path_913564" data-name="Path 913564" d="M249.53,32.763a8.58,8.58,0,0,0-1.126-.5c-.168-.066-.355-.122-.548-.182s-.4-.1-.615-.152a5.517,5.517,0,0,0-1.341-.1,4.8,4.8,0,0,0-.677.067l-.65.147-.6.207c-.192.067-.361.165-.53.233-.339.135-.595.307-.794.4l-.315.154s.075-.1.218-.271a5.1,5.1,0,0,1,1.165-1.025c.2-.107.4-.231.628-.331a7.171,7.171,0,0,1,.73-.237,5.308,5.308,0,0,1,.791-.107,4.275,4.275,0,0,1,.8.041,4.189,4.189,0,0,1,.749.168,4.526,4.526,0,0,1,1.2.6,3.365,3.365,0,0,1,.922.887" transform="translate(-66.629 -8.542)" fill="#935837"/>
            <path id="Path_913565" data-name="Path 913565" d="M233.554,25.61s14.153,2.49,24-10.974c0,0,.655,12.351,6.409,14.068,0,0,6.882-19.98-4.911-22.394,0,0-22.442-8.761-25.494,8.139a27.915,27.915,0,0,0,0,11.161" transform="translate(-64.061 -1.111)" fill="#502a22"/>
            <path id="Path_913566" data-name="Path 913566" d="M257.55,16.23s.655,12.351,6.409,14.068a43.009,43.009,0,0,0,1.453-5.848c-4.786-2.768-6.47-14.609-6.47-14.609-4.735,11.9-21.635,11.5-22.739,11.217-.682-.173-1.575-4.066-2.159-7.016a16.751,16.751,0,0,0-.49,2,27.924,27.924,0,0,0,0,11.16s14.153,2.49,24-10.974" transform="translate(-64.061 -2.706)" fill="#381f1a"/>
            <path id="Path_913567" data-name="Path 913567" d="M256.523,10.5a108.742,108.742,0,0,1-15.94-4.457,10.606,10.606,0,0,0-4.938,4.8,62.792,62.792,0,0,0,20.877-.346" transform="translate(-64.79 -1.66)" fill="#743d35"/>
            <g id="Group_1122533" data-name="Group 1122533" transform="translate(183.846 43.789)" opacity="0.5">
              <g id="Group_1122532" data-name="Group 1122532">
                <g id="Group_1122531" data-name="Group 1122531" clip-path="url(#clip-path-5)">
                  <path id="Path_913568" data-name="Path 913568" d="M253.562,60.394a4.79,4.79,0,0,0,3.8,0s-1.645,2.952-3.8,0" transform="translate(-253.562 -60.394)" fill="#b56e44"/>
                </g>
              </g>
            </g>
            <path id="Path_913569" data-name="Path 913569" d="M249.222,40.379c0,1.066-.627,1.931-1.4,1.931s-1.4-.865-1.4-1.931.627-1.932,1.4-1.932,1.4.865,1.4,1.932" transform="translate(-67.752 -10.571)" fill="#2b1f1c"/>
            <path id="Path_913570" data-name="Path 913570" d="M265.133,40.379c0,1.066-.628,1.931-1.4,1.931s-1.4-.865-1.4-1.931.628-1.932,1.4-1.932,1.4.865,1.4,1.932" transform="translate(-72.127 -10.571)" fill="#2b1f1c"/>
            <path id="Path_913571" data-name="Path 913571" d="M260.329,32.763a3.365,3.365,0,0,1,.922-.887,4.537,4.537,0,0,1,1.2-.6,4.181,4.181,0,0,1,.748-.168,4.283,4.283,0,0,1,.8-.041,5.312,5.312,0,0,1,.79.107,7,7,0,0,1,.73.237c.226.1.432.223.628.331a3.944,3.944,0,0,1,.508.371,3.873,3.873,0,0,1,.657.655c.144.17.219.271.219.271l-.315-.154c-.2-.094-.455-.266-.795-.4-.168-.068-.337-.166-.529-.233l-.6-.207-.65-.147a4.813,4.813,0,0,0-.678-.067,5.522,5.522,0,0,0-1.341.1c-.21.054-.421.088-.614.152s-.38.116-.548.182a8.58,8.58,0,0,0-1.126.5" transform="translate(-71.577 -8.542)" fill="#935837"/>
            <path id="Path_913572" data-name="Path 913572" d="M231.471,43.774s-.4,10.279,11.975,14.072" transform="translate(-63.642 -12.036)" fill="none" stroke="#262532" stroke-miterlimit="10" stroke-width="1.412"/>
            <path id="Path_913573" data-name="Path 913573" d="M267.507,28.773h-2.15V19.527a17.377,17.377,0,1,0-34.754,0v9.247h-2.15V19.527a19.527,19.527,0,1,1,39.053,0Z" transform="translate(-62.813 0)" fill="#262532"/>
            <path id="Path_913574" data-name="Path 913574" d="M230.306,31.877c-.049,0-.1,0-.149,0a6.894,6.894,0,1,0,0,13.788c.051,0,.1,0,.149,0Z" transform="translate(-61.386 -8.764)" fill="#2e3047"/>
            <g id="Group_1122536" data-name="Group 1122536" transform="translate(165.64 23.11)" opacity="0.6">
              <g id="Group_1122535" data-name="Group 1122535">
                <g id="Group_1122534" data-name="Group 1122534" clip-path="url(#clip-path-6)">
                  <path id="Path_913575" data-name="Path 913575" d="M231.585,31.874a6.858,6.858,0,0,0-3.132.754V44.908a6.848,6.848,0,0,0,3.132.754c.051,0,.1,0,.149,0V31.877l-.149,0" transform="translate(-228.453 -31.874)" fill="#282837"/>
                </g>
              </g>
            </g>
            <path id="Rectangle_410857" data-name="Rectangle 410857" d="M1.86,0h.588A1.861,1.861,0,0,1,4.309,1.861V14.108a1.86,1.86,0,0,1-1.86,1.86H1.861A1.861,1.861,0,0,1,0,14.107V1.86A1.86,1.86,0,0,1,1.86,0Z" transform="translate(167.085 22.02)" fill="#272435"/>
            <path id="Path_913576" data-name="Path 913576" d="M279.114,31.317c.047,0,.1,0,.146,0a6.894,6.894,0,0,1,0,13.788c-.049,0-.1,0-.146,0Z" transform="translate(-76.742 -8.609)" fill="#2e3047"/>
            <g id="Group_1122539" data-name="Group 1122539" transform="translate(202.372 22.704)" opacity="0.6">
              <g id="Group_1122538" data-name="Group 1122538">
                <g id="Group_1122537" data-name="Group 1122537" clip-path="url(#clip-path-7)">
                  <path id="Path_913577" data-name="Path 913577" d="M279.261,31.314a6.853,6.853,0,0,1,3.132.754v12.28a6.853,6.853,0,0,1-3.132.754c-.049,0-.1,0-.146,0V31.318c.047,0,.1,0,.146,0" transform="translate(-279.114 -31.314)" fill="#282837"/>
                </g>
              </g>
            </g>
            <path id="Rectangle_410859" data-name="Rectangle 410859" d="M1.861,0h.587A1.859,1.859,0,0,1,4.307,1.859V14.107a1.862,1.862,0,0,1-1.862,1.862H1.862A1.862,1.862,0,0,1,0,14.107V1.861A1.861,1.861,0,0,1,1.861,0Z" transform="translate(199.897 21.614)" fill="#272435"/>
            <path id="Rectangle_410860" data-name="Rectangle 410860" d="M1.546,0H3.991A1.547,1.547,0,0,1,5.539,1.547v0A1.546,1.546,0,0,1,3.993,3.093H1.546A1.546,1.546,0,0,1,0,1.547v0A1.546,1.546,0,0,1,1.546,0Z" transform="translate(178.857 44.04)" fill="#272435"/>
            <path id="Path_913578" data-name="Path 913578" d="M243.2,80.664l-4.129,10.524L252,89.229Z" transform="translate(-65.731 -22.178)" fill="#f5b7d0"/>
            <path id="Path_913579" data-name="Path 913579" d="M264.332,80.664l4.045,10.524-12.689-1.959Z" transform="translate(-70.301 -22.178)" fill="#f5b7d0"/>
            <path id="Path_913580" data-name="Path 913580" d="M254.185,48.678s-.014-.067-.026-.184a.807.807,0,0,1,.022-.222.9.9,0,0,1,.1-.284,1.5,1.5,0,0,1,.2-.3,1.582,1.582,0,0,1,.307-.255,1.324,1.324,0,0,1,.394-.181,2.025,2.025,0,0,1,.447-.074,1.935,1.935,0,0,1,.432.07,1.276,1.276,0,0,1,.41.185,1.564,1.564,0,0,1,.308.256,1.479,1.479,0,0,1,.2.3.859.859,0,0,1,.1.281.8.8,0,0,1,.023.222,1.52,1.52,0,0,1-.025.188s-.031-.066-.072-.168a.707.707,0,0,0-.1-.169,1.438,1.438,0,0,0-.16-.186,1.573,1.573,0,0,0-.485-.326,1.276,1.276,0,0,0-.288-.1,1.578,1.578,0,0,0-.336-.043,1.54,1.54,0,0,0-.322.039,1.3,1.3,0,0,0-.3.1,1.578,1.578,0,0,0-.486.327,1.6,1.6,0,0,0-.159.182.615.615,0,0,0-.1.169c-.041.11-.072.172-.072.172" transform="translate(-69.879 -12.973)" fill="#b66037"/>
            <path id="Path_913581" data-name="Path 913581" d="M250.372,53.225s3.057-.944,8.429-.092c0,0-3.931,7.818-8.429.092" transform="translate(-68.839 -14.511)" fill="#e34572"/>
            <path id="Path_913582" data-name="Path 913582" d="M250.926,53.4s3.039,1.731,7.792,0c0,0-3.752,5.5-7.792,0" transform="translate(-68.992 -14.681)" fill="#fff"/>
            <path id="Path_913583" data-name="Path 913583" d="M250.926,53.4c.047.064.094.124.141.185,1.067.791,3.686,2.183,7.477.049a1.792,1.792,0,0,0,.174-.233c-4.753,1.731-7.792,0-7.792,0" transform="translate(-68.992 -14.681)" fill="#cfd8e4"/>
            <path id="Path_913584" data-name="Path 913584" d="M248.394,37.932a7.2,7.2,0,0,0-1.1-.3c-.157-.033-.327-.044-.5-.062a3.234,3.234,0,0,0-.516.022,2.6,2.6,0,0,0-.5.13,1.2,1.2,0,0,0-.24.108,1.031,1.031,0,0,0-.234.135l-.231.154c-.07.067-.144.128-.218.191a5.43,5.43,0,0,0-.417.411,3.172,3.172,0,0,1-.283.275,1.924,1.924,0,0,1-.337.213,1.29,1.29,0,0,1-.739.144,1.055,1.055,0,0,1-.563-.225,1.266,1.266,0,0,1-.283-.308,1.35,1.35,0,0,1-.12-.226c-.023-.052-.036-.08-.036-.08s.117.056.3.131a.971.971,0,0,0,.674.054.931.931,0,0,0,.305-.205,1.05,1.05,0,0,0,.137-.167l.131-.209a3.412,3.412,0,0,1,.452-.6l.28-.28.335-.24a2.559,2.559,0,0,1,.765-.337,2.528,2.528,0,0,1,.81-.082,2.667,2.667,0,0,1,.719.161,2.57,2.57,0,0,1,.56.289,2.712,2.712,0,0,1,.663.617,1.874,1.874,0,0,1,.183.289" transform="translate(-66.559 -10.056)" fill="#2b1f1c"/>
            <path id="Path_913585" data-name="Path 913585" d="M261.289,37.932a1.874,1.874,0,0,1,.183-.289,2.687,2.687,0,0,1,.663-.617,2.554,2.554,0,0,1,.56-.289,2.64,2.64,0,0,1,.719-.161A2.633,2.633,0,0,1,264.99,37l.334.24.28.28a3.453,3.453,0,0,1,.452.6l.13.207a1.087,1.087,0,0,0,.138.167.94.94,0,0,0,.305.2.973.973,0,0,0,.674-.054c.185-.075.3-.131.3-.131s-.013.028-.036.08a1.351,1.351,0,0,1-.12.226,1.282,1.282,0,0,1-.283.308,1.061,1.061,0,0,1-.563.225,1.289,1.289,0,0,1-.739-.142,1.923,1.923,0,0,1-.337-.213,2.916,2.916,0,0,1-.284-.275,5.7,5.7,0,0,0-.417-.411c-.073-.063-.148-.124-.217-.191l-.231-.154a.976.976,0,0,0-.234-.134,1.144,1.144,0,0,0-.24-.109,2.539,2.539,0,0,0-.5-.131,3.225,3.225,0,0,0-.516-.022c-.169.019-.339.03-.5.062a7.2,7.2,0,0,0-1.1.3" transform="translate(-71.841 -10.056)" fill="#2b1f1c"/>
            <path id="Path_913586" data-name="Path 913586" d="M210.906,122.15c1.291-5.074,10.277-18.549,10.277-18.549,3.934-11.42-1.271-19.47-1.271-19.47-7.238.281-16.059,26.04-18.472,38.019Z" transform="translate(-55.385 -23.132)" fill="#f5b7d0"/>
            <path id="Path_913587" data-name="Path 913587" d="M203.715,123.662c1.321-7.744,6.838-25.043,10.882-34.033-5.75,7.752-11.317,24.9-13.158,34.033Z" transform="translate(-55.385 -24.643)" fill="#ee84aa"/>
            <path id="Path_913588" data-name="Path 913588" d="M295.1,122.314h9.5c-2.534-12.153-11.23-37.308-18.384-37.587,0,0-5.205,8.05-1.271,19.47,0,0,8.5,12.752,10.154,18.117" transform="translate(-77.941 -23.295)" fill="#f5b7d0"/>
            <path id="Path_913589" data-name="Path 913589" d="M307.657,123.825c-1.926-9.233-7.409-25.969-13.07-33.6,3.97,8.826,9.36,25.662,10.805,33.6Z" transform="translate(-80.996 -24.807)" fill="#ee84aa"/>
            <path id="Path_913590" data-name="Path 913590" d="M25.2,120.546H63.8l-.14-4.173c1.147-9.942,1.974-31.221,1.706-32.535,0,0-12.5-4.434-14.666-5.542l-6.39,1.079L37.916,78.3C35.75,79.4,23.251,83.838,23.251,83.838c-.268,1.314.974,22.593,2.121,32.535Z" transform="translate(-6.383 -21.527)" fill="#c4d2db"/>
            <g id="Group_1122542" data-name="Group 1122542" transform="translate(17.103 66.512)" opacity="0.5">
              <g id="Group_1122541" data-name="Group 1122541">
                <g id="Group_1122540" data-name="Group 1122540" clip-path="url(#clip-path-8)">
                  <path id="Path_913591" data-name="Path 913591" d="M25.436,91.734,23.589,95.47c.394,7.44,1.159,18.3,1.886,24.6l-.006.158c3.193-3.248-.033-28.492-.033-28.492" transform="translate(-23.589 -91.734)" fill="#8daab6"/>
                </g>
              </g>
            </g>
            <path id="Path_913592" data-name="Path 913592" d="M52.134,125.041l3.382-5.932L53.176,96.3l-1.541-1.608v-.046l-1.542,1.607-2.34,22.807,3.411,5.98Z" transform="translate(-13.129 -26.023)" fill="#902021"/>
            <path id="Path_913593" data-name="Path 913593" d="M48.164,91.189,49.9,94.911s1.088.766,3.59,0l1.846-3.722-1.846-1.6s-.6.695-3.59,0Z" transform="translate(-13.243 -24.631)" fill="#b62226"/>
            <path id="Path_913594" data-name="Path 913594" d="M54.013,64.472,49.381,65.6l-4.633-1.128s-.605,6.667-3.572,10.619c0,0,7.963,7.558,8.65,7.59,1.406,0,7.96-7.12,7.96-7.12-3.909-3.57-3.772-11.089-3.772-11.089" transform="translate(-11.321 -17.726)" fill="#d99a74"/>
            <path id="Path_913595" data-name="Path 913595" d="M45.692,64.641a28.357,28.357,0,0,1-1.046,5.289A27.084,27.084,0,0,0,56.7,72.8a20.49,20.49,0,0,1-1.734-8.145l-4.617,1-.009,0-.007,0-.129-.033Z" transform="translate(-12.275 -17.773)" fill="#ca8053"/>
            <path id="Path_913596" data-name="Path 913596" d="M31.476,39.674c.18,2.406-.865,4.445-2.335,4.556s-2.806-1.752-2.984-4.16.866-4.443,2.335-4.553,2.805,1.751,2.984,4.157" transform="translate(-7.186 -9.764)" fill="#d58759"/>
            <g id="Group_1122545" data-name="Group 1122545" transform="translate(19.945 27.487)" opacity="0.6">
              <g id="Group_1122544" data-name="Group 1122544">
                <g id="Group_1122543" data-name="Group 1122543" clip-path="url(#clip-path-9)">
                  <path id="Path_913597" data-name="Path 913597" d="M27.508,39.554s.012.679.381.765a1.451,1.451,0,0,1,1.019-1.69s-.845.481-.7,2.535A1.452,1.452,0,0,1,29.462,39.9s-1.832,1.545-.268,2.562c0,0-.056,1.055-1.032.288,0,0,1.446,2.108,1.836-.533,0,0-1.8-.5-.233-1.2l.476-.182s.386-2.99-1.333-2.921-1.263,2.493-1.4,1.644" transform="translate(-27.508 -37.91)" fill="#b25f44"/>
                </g>
              </g>
            </g>
            <path id="Path_913598" data-name="Path 913598" d="M27.5,39.907a2.1,2.1,0,0,1,.4-1.536,1.44,1.44,0,0,1,.305-.281,1.9,1.9,0,0,1,.365-.2,1.794,1.794,0,0,1,.407-.111l.2-.02.228.037a.9.9,0,0,1,.379.225,1.279,1.279,0,0,1,.256.345,3.006,3.006,0,0,1,.265.785,7.041,7.041,0,0,1,.109,1.618l0,.086-.078.023a4.062,4.062,0,0,0-.59.22,1.236,1.236,0,0,0-.474.339c-.034.034-.022.068-.041.1.018.032-.005.065.03.1a.726.726,0,0,0,.2.189,3.965,3.965,0,0,0,.567.261l.074.03-.012.07a3.057,3.057,0,0,1-.241.8,1.244,1.244,0,0,1-.238.354.608.608,0,0,1-.394.2,1.307,1.307,0,0,1-.219-.032l-.19-.1a1.278,1.278,0,0,1-.164-.128.983.983,0,0,1-.149-.141A5.148,5.148,0,0,1,28,42.484a5.109,5.109,0,0,0,.534.6.95.95,0,0,0,.154.125,1.18,1.18,0,0,0,.162.109l.176.076c.061,0,.121.017.181.014.241-.028.4-.262.5-.494a2.906,2.906,0,0,0,.2-.758l.062.1a3.378,3.378,0,0,1-.616-.268.88.88,0,0,1-.267-.26c-.046-.047-.044-.138-.058-.208a.491.491,0,0,1,.071-.2.873.873,0,0,1,.262-.254,1.975,1.975,0,0,1,.3-.17,4.212,4.212,0,0,1,.623-.242l-.083.109a7.458,7.458,0,0,0-.091-1.577,2.789,2.789,0,0,0-.234-.732,1.087,1.087,0,0,0-.215-.3.763.763,0,0,0-.293-.19l-.165-.039-.2.012a1.633,1.633,0,0,0-.367.086,1.747,1.747,0,0,0-.344.17,1.306,1.306,0,0,0-.292.247,2.051,2.051,0,0,0-.492,1.459" transform="translate(-7.557 -10.382)" fill="#a25532"/>
            <path id="Path_913599" data-name="Path 913599" d="M28.412,41.01a3.48,3.48,0,0,1-.008-.539,2.752,2.752,0,0,1,.3-1.158,1.454,1.454,0,0,1,.442-.492.935.935,0,0,1,.275-.146.851.851,0,0,1,.268-.078,2.545,2.545,0,0,1,.571-.035l-.033.272a2.379,2.379,0,0,0-.5-.009.694.694,0,0,0-.235.049.76.76,0,0,0-.245.107,1.3,1.3,0,0,0-.426.406,2.676,2.676,0,0,0-.372,1.09,3.522,3.522,0,0,0-.034.534" transform="translate(-7.808 -10.601)" fill="#a25532"/>
            <path id="Path_913600" data-name="Path 913600" d="M71.634,39.674c-.18,2.406.866,4.445,2.335,4.556s2.805-1.752,2.985-4.16-.866-4.443-2.335-4.553-2.806,1.751-2.985,4.157" transform="translate(-19.69 -9.764)" fill="#d58759"/>
            <g id="Group_1122548" data-name="Group 1122548" transform="translate(53.518 27.487)" opacity="0.6">
              <g id="Group_1122547" data-name="Group 1122547">
                <g id="Group_1122546" data-name="Group 1122546" clip-path="url(#clip-path-9)">
                  <path id="Path_913601" data-name="Path 913601" d="M76.582,39.554s-.011.679-.381.765a1.451,1.451,0,0,0-1.018-1.69s.844.481.7,2.535A1.454,1.454,0,0,0,74.63,39.9s1.832,1.545.268,2.562c0,0,.056,1.055,1.03.288,0,0-1.446,2.108-1.835-.533,0,0,1.8-.5.233-1.2l-.477-.182s-.385-2.99,1.335-2.921,1.263,2.493,1.4,1.644" transform="translate(-73.812 -37.91)" fill="#b25f44"/>
                </g>
              </g>
            </g>
            <path id="Path_913602" data-name="Path 913602" d="M76.531,39.907a2.054,2.054,0,0,0-.491-1.459,1.313,1.313,0,0,0-.293-.248,1.825,1.825,0,0,0-.344-.17,1.645,1.645,0,0,0-.368-.085l-.2-.012-.165.039a.763.763,0,0,0-.294.19,1.091,1.091,0,0,0-.215.3,2.78,2.78,0,0,0-.234.732,7.455,7.455,0,0,0-.091,1.577l-.083-.109a4.243,4.243,0,0,1,.623.242,1.914,1.914,0,0,1,.3.17.873.873,0,0,1,.262.254.5.5,0,0,1,.071.2c-.014.07-.01.161-.057.209a.886.886,0,0,1-.266.26,3.384,3.384,0,0,1-.616.268l.062-.1a2.877,2.877,0,0,0,.194.758c.1.232.26.466.5.494.059,0,.12-.012.181-.014l.176-.076a1.225,1.225,0,0,0,.162-.109.945.945,0,0,0,.154-.125,5.181,5.181,0,0,0,.534-.6,5.159,5.159,0,0,1-.492.647.992.992,0,0,1-.15.141,1.223,1.223,0,0,1-.163.128l-.19.1a1.3,1.3,0,0,1-.22.032.609.609,0,0,1-.394-.2,1.244,1.244,0,0,1-.238-.354,3.064,3.064,0,0,1-.24-.8l-.012-.07.074-.03a3.937,3.937,0,0,0,.568-.261.713.713,0,0,0,.194-.189c.036-.033.012-.067.03-.1-.02-.032-.007-.067-.042-.1a1.242,1.242,0,0,0-.474-.338,4.062,4.062,0,0,0-.59-.22l-.078-.023,0-.086a7.007,7.007,0,0,1,.11-1.618,2.957,2.957,0,0,1,.265-.785,1.264,1.264,0,0,1,.256-.345.9.9,0,0,1,.379-.225l.228-.037.2.02a1.8,1.8,0,0,1,.407.111,1.865,1.865,0,0,1,.365.2,1.425,1.425,0,0,1,.306.281,2.1,2.1,0,0,1,.4,1.536" transform="translate(-20.237 -10.382)" fill="#a25532"/>
            <path id="Path_913603" data-name="Path 913603" d="M76.026,41.01a3.522,3.522,0,0,0-.034-.534,2.678,2.678,0,0,0-.371-1.09,1.284,1.284,0,0,0-.426-.407.739.739,0,0,0-.244-.106.682.682,0,0,0-.235-.049,2.379,2.379,0,0,0-.5.009l-.033-.272a2.492,2.492,0,0,1,.571.035.871.871,0,0,1,.268.078.93.93,0,0,1,.275.147,1.459,1.459,0,0,1,.442.492,2.763,2.763,0,0,1,.3,1.157,3.525,3.525,0,0,1-.009.539" transform="translate(-20.396 -10.601)" fill="#a25532"/>
            <path id="Path_913604" data-name="Path 913604" d="M61.766,33.395a25.3,25.3,0,0,1-.943,8.176c-2.111,6.97-9.476,12.489-13.963,12.489-4.55,0-11.981-5.709-14.05-12.793a24.975,24.975,0,0,1-.853-7.872c0-9.025.23-20.839,14.9-20.839S61.766,24.37,61.766,33.395" transform="translate(-8.787 -3.452)" fill="#f1b288"/>
            <path id="Path_913605" data-name="Path 913605" d="M35.681,18.167S41.115,22.2,57.461,20.6a62.234,62.234,0,0,1,3.623,7.8c.983,2.985.134-7.61.134-7.61s-4.227-8.583-4.509-8.237S35.2,17.406,35.2,17.406Z" transform="translate(-9.677 -3.448)" fill="#d99a74"/>
            <path id="Path_913606" data-name="Path 913606" d="M58.676,17.145c2.975,4.262,3.055,10.473,3.055,15.735a25.264,25.264,0,0,1-.944,8.177c-2.11,6.968-9.475,12.488-13.961,12.488-2.694,0-6.394-2-9.4-5.1,3.181,4.091,7.76,6.875,10.937,6.875,4.487,0,11.851-5.519,13.962-12.489a25.3,25.3,0,0,0,.943-8.176c0-6.051-.1-13.355-4.595-17.511" transform="translate(-10.291 -4.714)" fill="#d99a74"/>
            <path id="Path_913607" data-name="Path 913607" d="M49.592,49.653s-.009-.1-.015-.267a1.171,1.171,0,0,1,.051-.312,1.341,1.341,0,0,1,.158-.392,2.222,2.222,0,0,1,.3-.405,2.311,2.311,0,0,1,.442-.349,1.938,1.938,0,0,1,.556-.247,2.65,2.65,0,0,1,.65-.1,2.8,2.8,0,0,1,.586.094,1.865,1.865,0,0,1,.571.25,2.336,2.336,0,0,1,.443.349,2.242,2.242,0,0,1,.294.405,1.3,1.3,0,0,1,.157.389,1.156,1.156,0,0,1,.052.313c0,.177-.014.27-.014.27s-.035-.1-.082-.252a1.091,1.091,0,0,0-.129-.26,1.817,1.817,0,0,0-.22-.294,3.7,3.7,0,0,0-.31-.294,3.4,3.4,0,0,0-.405-.239l-.225-.1c-.076-.02-.152-.036-.226-.06a2.4,2.4,0,0,0-.541-.07,2.541,2.541,0,0,0-.476.067l-.242.063-.225.1a3.284,3.284,0,0,0-.4.239,3.592,3.592,0,0,0-.31.294,1.9,1.9,0,0,0-.219.291,1.012,1.012,0,0,0-.13.26c-.048.163-.082.255-.082.255" transform="translate(-13.63 -13.083)" fill="#b66037"/>
            <path id="Path_913608" data-name="Path 913608" d="M49.325,61.327a4.845,4.845,0,0,0,3.85,0s-1.668,2.987-3.85,0" transform="translate(-13.562 -16.862)" fill="#b56e44"/>
            <path id="Path_913609" data-name="Path 913609" d="M45.469,41.077c0,1.078-.635,1.953-1.418,1.953s-1.417-.875-1.417-1.953.634-1.953,1.417-1.953,1.418.875,1.418,1.953" transform="translate(-11.722 -10.757)" fill="#2b1f1c"/>
            <path id="Path_913610" data-name="Path 913610" d="M61.567,41.077c0,1.078-.634,1.953-1.417,1.953s-1.417-.875-1.417-1.953.635-1.953,1.417-1.953,1.417.875,1.417,1.953" transform="translate(-16.148 -10.757)" fill="#2b1f1c"/>
            <path id="Path_913611" data-name="Path 913611" d="M50.43,54.143a16.448,16.448,0,0,1-6.467-1.268s1.866,4.419,6.06,4.415c0,0,.051,0,.14,0s.14,0,.14,0c4.2,0,6.061-4.415,6.061-4.415a16.318,16.318,0,0,1-5.933,1.268" transform="translate(-12.088 -14.538)" fill="#b92b2e"/>
            <path id="Path_913612" data-name="Path 913612" d="M45.78,33.32s-.121-.055-.33-.135-.5-.193-.846-.3c-.171-.059-.361-.105-.555-.16s-.407-.081-.615-.131a6.432,6.432,0,0,0-1.32-.076,6.571,6.571,0,0,0-.665.063l-.644.131c-.2.069-.4.132-.6.188s-.367.151-.54.212c-.349.12-.618.277-.828.36s-.336.135-.336.135.068-.111.2-.3a3.6,3.6,0,0,1,.64-.707,3.711,3.711,0,0,1,.509-.4,6.971,6.971,0,0,1,.641-.356,7.261,7.261,0,0,1,.752-.258,4.565,4.565,0,0,1,.821-.113,3.78,3.78,0,0,1,.827.044,4.41,4.41,0,0,1,.773.187,4.358,4.358,0,0,1,1.217.65,3.147,3.147,0,0,1,.9.966" transform="translate(-10.585 -8.652)" fill="#935837"/>
            <path id="Path_913613" data-name="Path 913613" d="M56.705,33.32a3.144,3.144,0,0,1,.9-.966,4.343,4.343,0,0,1,1.217-.65,4.425,4.425,0,0,1,.773-.186,3.736,3.736,0,0,1,.827-.045,4.63,4.63,0,0,1,.821.112,7.7,7.7,0,0,1,.753.258,7.233,7.233,0,0,1,.64.357,3.711,3.711,0,0,1,.509.4,3.613,3.613,0,0,1,.641.707c.136.185.2.3.2.3s-.128-.046-.336-.135-.479-.241-.828-.361c-.173-.06-.347-.15-.54-.211s-.4-.12-.6-.188l-.644-.131a6.569,6.569,0,0,0-.665-.063,6.432,6.432,0,0,0-1.32.076c-.208.05-.421.075-.615.131s-.384.1-.555.16c-.346.11-.639.219-.846.3s-.33.135-.33.135" transform="translate(-15.591 -8.652)" fill="#935837"/>
            <path id="Path_913614" data-name="Path 913614" d="M31.093,28.774s2.156-1.117,2.53-5.037,1.316-8.056,2.208-8.337,4.415,1.316,10.686,1.033c0,0,6.553.226,9.278-1.06a23.442,23.442,0,0,1,2.818,7.355c.735,4.038,1.446,5.744,2.276,5.76s2.934-12.523,0-14.684c0,0,1.978-10.147-5.752-11.179C37.57.274,32.108.662,31.088,12.393c0,0-5.167,1.6.005,16.381" transform="translate(-7.916 -0.407)" fill="#935837"/>
            <g id="Group_1122551" data-name="Group 1122551" transform="translate(24.676 1.779)" opacity="0.5">
              <g id="Group_1122550" data-name="Group 1122550">
                <g id="Group_1122549" data-name="Group 1122549" clip-path="url(#clip-path-11)">
                  <path id="Path_913615" data-name="Path 913615" d="M34.033,6.258c3.472,1.21,12.287,3.927,19.326,3.115,0,0-9.533-1.8-14.88-6.919a7.179,7.179,0,0,0-4.445,3.8" transform="translate(-34.033 -2.454)" fill="#b17852"/>
                </g>
              </g>
            </g>
            <path id="Path_913616" data-name="Path 913616" d="M33.623,26.451c.376-3.923,1.315-8.056,2.208-8.337s4.414,1.315,10.686,1.032c0,0,6.553.227,9.278-1.06a23.439,23.439,0,0,1,2.818,7.355c.735,4.039,1.446,5.744,2.276,5.761s2.934-12.524,0-14.684a16.066,16.066,0,0,0,.029-5.166c-1.729,8.709-20.973,1.705-24.568,1.876-3.946.189-3.757,9.677-5.261,10.428-.93.465-1.694-2.593-2.14-4.994-.4,2.389-.125,6.336,2.145,12.826,0,0,2.155-1.117,2.53-5.037" transform="translate(-7.917 -3.121)" fill="#7d452b"/>
            <path id="Path_913617" data-name="Path 913617" d="M27.509,44.512s-.4,10.4,12.116,14.237" transform="translate(-7.563 -12.238)" fill="none" stroke="#262532" stroke-miterlimit="10" stroke-width="0.967"/>
            <path id="Path_913618" data-name="Path 913618" d="M63.967,29.336H61.792V19.982a17.58,17.58,0,1,0-35.161,0v9.355H24.457V19.982a19.755,19.755,0,0,1,39.51,0Z" transform="translate(-6.724 -0.062)" fill="#262532"/>
            <path id="Path_913619" data-name="Path 913619" d="M26.332,32.476c-.05,0-.1-.005-.149-.005a6.974,6.974,0,0,0,0,13.949l.149,0Z" transform="translate(-5.281 -8.928)" fill="#2e3047"/>
            <g id="Group_1122554" data-name="Group 1122554" transform="translate(17.732 23.543)" opacity="0.6">
              <g id="Group_1122553" data-name="Group 1122553">
                <g id="Group_1122552" data-name="Group 1122552" clip-path="url(#clip-path-12)">
                  <path id="Path_913620" data-name="Path 913620" d="M27.625,32.471a6.938,6.938,0,0,0-3.169.763V45.658a6.946,6.946,0,0,0,3.169.761l.149,0V32.476c-.05,0-.1-.005-.149-.005" transform="translate(-24.456 -32.471)" fill="#282837"/>
                </g>
              </g>
            </g>
            <path id="Rectangle_410866" data-name="Rectangle 410866" d="M1.884,0h.59A1.884,1.884,0,0,1,4.358,1.884V14.273a1.882,1.882,0,0,1-1.882,1.882H1.884A1.884,1.884,0,0,1,0,14.271V1.884A1.884,1.884,0,0,1,1.884,0Z" transform="translate(19.195 22.442)" fill="#272435"/>
            <path id="Path_913621" data-name="Path 913621" d="M75.709,31.911c.049,0,.1-.005.149-.005a6.975,6.975,0,0,1,0,13.949l-.149,0Z" transform="translate(-20.816 -8.772)" fill="#2e3047"/>
            <g id="Group_1122557" data-name="Group 1122557" transform="translate(54.893 23.134)" opacity="0.6">
              <g id="Group_1122556" data-name="Group 1122556">
                <g id="Group_1122555" data-name="Group 1122555" clip-path="url(#clip-path-12)">
                  <path id="Path_913622" data-name="Path 913622" d="M75.858,31.906a6.93,6.93,0,0,1,3.169.764V45.094a6.974,6.974,0,0,1-3.169.761l-.149,0V31.911c.049,0,.1-.005.149-.005" transform="translate(-75.709 -31.906)" fill="#282837"/>
                </g>
              </g>
            </g>
            <path id="Rectangle_410868" data-name="Rectangle 410868" d="M1.884,0h.592A1.882,1.882,0,0,1,4.358,1.882V14.273a1.882,1.882,0,0,1-1.882,1.882H1.883A1.883,1.883,0,0,1,0,14.272V1.884A1.884,1.884,0,0,1,1.884,0Z" transform="translate(52.39 22.032)" fill="#272435"/>
            <path id="Rectangle_410869" data-name="Rectangle 410869" d="M1.565,0H4.039A1.565,1.565,0,0,1,5.6,1.565v0A1.565,1.565,0,0,1,4.038,3.13H1.565A1.565,1.565,0,0,1,0,1.565v0A1.565,1.565,0,0,1,1.565,0Z" transform="translate(31.104 44.718)" fill="#272435"/>
            <path id="Path_913623" data-name="Path 913623" d="M61.066,79.766l2.523,13.419-10.482-6.3Z" transform="translate(-14.602 -21.931)" fill="#fff"/>
            <path id="Path_913624" data-name="Path 913624" d="M40.146,79.118,37.429,92.361,48.8,86.708Z" transform="translate(-10.291 -21.753)" fill="#fff"/>
            <g id="Group_1122560" data-name="Group 1122560" transform="translate(53.381 62.31)" opacity="0.5">
              <g id="Group_1122559" data-name="Group 1122559">
                <g id="Group_1122558" data-name="Group 1122558" clip-path="url(#clip-path-14)">
                  <path id="Path_913625" data-name="Path 913625" d="M77.656,122.647l-.14-4.173c1.147-9.942,1.974-31.221,1.705-32.535,0,0-3.379,28.546-5.1,29.955-.421.345-.532,2.963-.487,6.753Z" transform="translate(-73.623 -85.939)" fill="#8daab6"/>
                </g>
              </g>
            </g>
            <path id="Path_913626" data-name="Path 913626" d="M9.1,122.537c-.163-3.514,8.781-17.081,8.781-17.081a30,30,0,0,0-.114-19.86C11.092,84.136,2.131,111.385.118,122.537Z" transform="translate(-0.032 -23.519)" fill="#d1e0e8"/>
            <g id="Group_1122563" data-name="Group 1122563" transform="translate(0 64.27)" opacity="0.5">
              <g id="Group_1122562" data-name="Group 1122562">
                <g id="Group_1122561" data-name="Group 1122561" clip-path="url(#clip-path-15)">
                  <path id="Path_913627" data-name="Path 913627" d="M2.268,123.39c.948-7.135,7.145-26.513,11.175-34.749C7.664,95.238,1.6,114.483,0,123.39Z" transform="translate(0 -88.641)" fill="#8daab6"/>
                </g>
              </g>
            </g>
            <path id="Path_913628" data-name="Path 913628" d="M87.386,122.537c.163-3.514-8.781-17.081-8.781-17.081a30,30,0,0,1,.114-19.86c6.672-1.46,15.633,25.788,17.646,36.941Z" transform="translate(-21.166 -23.519)" fill="#d1e0e8"/>
            <g id="Group_1122566" data-name="Group 1122566" transform="translate(61.842 64.27)" opacity="0.5">
              <g id="Group_1122565" data-name="Group 1122565">
                <g id="Group_1122564" data-name="Group 1122564" clip-path="url(#clip-path-16)">
                  <path id="Path_913629" data-name="Path 913629" d="M96.468,123.39c-.948-7.135-7.145-26.513-11.175-34.749,5.779,6.6,11.841,25.842,13.443,34.749Z" transform="translate(-85.293 -88.641)" fill="#8daab6"/>
                </g>
              </g>
            </g>
            <path id="Path_913630" data-name="Path 913630" d="M55.081,52.832s.5-.136.592-1.013a13.965,13.965,0,0,1-4.833.9,15.547,15.547,0,0,1-5.452-.907c.083.468.26,1.11.608,1.256.563.235,6.013,1.737,9.086-.236" transform="translate(-12.479 -14.246)" fill="#fff"/>
            <path id="Path_913631" data-name="Path 913631" d="M161.833,50.859h-2.182V41.471a17.643,17.643,0,1,0-35.285,0v9.388h-2.183V41.471a19.825,19.825,0,0,1,39.651,0Z" transform="translate(-33.594 -5.952)" fill="#262532"/>
            <path id="Path_913632" data-name="Path 913632" d="M173.617,53.442c.05,0,.1,0,.149,0a7,7,0,1,1,0,14c-.051,0-.1,0-.149,0Z" transform="translate(-47.736 -14.693)" fill="#2e3047"/>
            <g id="Group_1122569" data-name="Group 1122569" transform="translate(125.881 38.745)" opacity="0.6">
              <g id="Group_1122568" data-name="Group 1122568">
                <g id="Group_1122567" data-name="Group 1122567" clip-path="url(#clip-path-17)">
                  <path id="Path_913633" data-name="Path 913633" d="M173.766,53.438a6.955,6.955,0,0,1,3.18.766V66.672a6.973,6.973,0,0,1-3.18.764l-.149,0V53.442c.05,0,.1,0,.149,0" transform="translate(-173.617 -53.438)" fill="#282837"/>
                </g>
              </g>
            </g>
            <rect id="Rectangle_410874" data-name="Rectangle 410874" width="4.374" height="16.212" rx="1.89" transform="translate(123.37 37.639)" fill="#272435"/>
            <path id="Path_913634" data-name="Path 913634" d="M124.065,54.009c-.05,0-.1,0-.15,0a7,7,0,1,0,0,14l.15,0Z" transform="translate(-32.146 -14.849)" fill="#2e3047"/>
            <g id="Group_1122572" data-name="Group 1122572" transform="translate(88.588 39.156)" opacity="0.6">
              <g id="Group_1122571" data-name="Group 1122571">
                <g id="Group_1122570" data-name="Group 1122570" clip-path="url(#clip-path-18)">
                  <path id="Path_913635" data-name="Path 913635" d="M125.363,54.005a6.965,6.965,0,0,0-3.181.766V67.239a6.974,6.974,0,0,0,3.181.765c.051,0,.1,0,.15,0V54.009c-.05,0-.1,0-.15,0" transform="translate(-122.182 -54.005)" fill="#282837"/>
                </g>
              </g>
            </g>
            <path id="Rectangle_410876" data-name="Rectangle 410876" d="M1.891,0h.594A1.889,1.889,0,0,1,4.374,1.889V14.322a1.89,1.89,0,0,1-1.89,1.89H1.89A1.89,1.89,0,0,1,0,14.322V1.891A1.891,1.891,0,0,1,1.891,0Z" transform="translate(90.057 38.05)" fill="#272435"/>
            <path id="Path_913636" data-name="Path 913636" d="M112.944,133.763l-5.234-7.395s-.575,2.915-1.454,7.395Z" transform="translate(-29.215 -34.745)" fill="#f1b288"/>
            <g id="Group_1122575" data-name="Group 1122575" transform="translate(77.041 95.619)" opacity="0.7">
              <g id="Group_1122574" data-name="Group 1122574">
                <g id="Group_1122573" data-name="Group 1122573" clip-path="url(#clip-path-19)">
                  <path id="Path_913637" data-name="Path 913637" d="M112.384,135.278l-5.46-3.4c-.194.988-.418,2.132-.667,3.4Z" transform="translate(-106.256 -131.879)" fill="#d18658"/>
                </g>
              </g>
            </g>
            <path id="Path_913638" data-name="Path 913638" d="M116.092,128.547c1.9-8.451,3.853-20.605-1.676-21.15,0,0-5.157,1.262-7.372,5.241-1.6,2.877-4.01,11.4-5.22,15.909Z" transform="translate(-27.996 -29.528)" fill="#f5dcb7"/>
            <path id="Path_913639" data-name="Path 913639" d="M118.844,129.24c1.474-6.577,2.869-15.452.81-19.321a5.427,5.427,0,0,0-1.175.146c-7.176,1.681-7.243,11.471-6.1,19.175Z" transform="translate(-30.748 -30.222)" fill="#d8b481"/>
            <path id="Path_913640" data-name="Path 913640" d="M190.863,133.763c-.879-4.48-1.454-7.395-1.454-7.395l-5.236,7.395Z" transform="translate(-50.638 -34.745)" fill="#f1b288"/>
            <g id="Group_1122578" data-name="Group 1122578" transform="translate(134.097 95.619)" opacity="0.7">
              <g id="Group_1122577" data-name="Group 1122577">
                <g id="Group_1122576" data-name="Group 1122576" clip-path="url(#clip-path-19)">
                  <path id="Path_913641" data-name="Path 913641" d="M191.076,135.278c-.249-1.267-.474-2.411-.668-3.4l-5.461,3.4Z" transform="translate(-184.948 -131.879)" fill="#d18658"/>
                </g>
              </g>
            </g>
            <path id="Path_913642" data-name="Path 913642" d="M191.72,128.511C190.51,124,188.1,115.479,186.5,112.6c-2.216-3.98-7.18-5.335-7.18-5.335-5.529.545-3.764,12.793-1.868,21.244Z" transform="translate(-48.281 -29.493)" fill="#f5dcb7"/>
            <path id="Path_913643" data-name="Path 913643" d="M183.92,129.24c1.14-7.7,1.074-17.494-6.1-19.175a5.416,5.416,0,0,0-1.175-.146c-2.059,3.869-.664,12.744.811,19.321Z" transform="translate(-48.282 -30.222)" fill="#d8b481"/>
            <path id="Path_913644" data-name="Path 913644" d="M163,126.51c1.3-10.5,2.239-19.279,1.936-20.666,0,0-14.18-4.683-16.639-5.854l-7.249,1.142L133.8,99.99c-2.459,1.171-16.639,5.854-16.639,5.854-.3,1.387.634,10.165,1.936,20.666Z" transform="translate(-32.197 -27.492)" fill="#f5dcb7"/>
            <path id="Path_913645" data-name="Path 913645" d="M151.721,86.117l-5.246,1.132-5.247-1.132s-.521,9.05-4.949,12.633c0,0,9.944,8.664,10.724,8.695,1.593,0,9.669-8.695,9.669-8.695-4.429-3.583-4.949-12.633-4.949-12.633" transform="translate(-37.469 -23.678)" fill="#d99a74"/>
            <path id="Path_913646" data-name="Path 913646" d="M153.265,86.117l-5.246,1.132-5.247-1.132a29.727,29.727,0,0,1-.877,5.212c2.607,1.474,6.9,3.062,13.3,3.117a28.272,28.272,0,0,1-1.932-8.329" transform="translate(-39.013 -23.678)" fill="#ca8053"/>
            <path id="Path_913647" data-name="Path 913647" d="M159.625,54.931a25.338,25.338,0,0,1-.947,8.2c-2.118,6.994-9.508,12.535-14.01,12.535-4.568,0-12.024-5.732-14.1-12.839a25.053,25.053,0,0,1-.856-7.9c0-9.058.231-20.913,14.957-20.913s14.957,11.855,14.957,20.913" transform="translate(-35.664 -9.353)" fill="#f1b288"/>
            <path id="Path_913648" data-name="Path 913648" d="M156.523,38.621c2.986,4.279,3.066,10.512,3.066,15.793a25.364,25.364,0,0,1-.947,8.2c-2.118,6.993-9.508,12.533-14.011,12.533-2.7,0-6.417-2.006-9.43-5.117,3.192,4.105,7.788,6.9,10.977,6.9,4.5,0,11.892-5.541,14.01-12.535a25.339,25.339,0,0,0,.947-8.2c0-6.073-.1-13.4-4.611-17.575" transform="translate(-37.173 -10.619)" fill="#d99a74"/>
            <path id="Path_913649" data-name="Path 913649" d="M147.4,71.194s-.02-.1-.043-.271a.976.976,0,0,1,.028-.329,1.4,1.4,0,0,1,.146-.42,2.167,2.167,0,0,1,.291-.438,2.327,2.327,0,0,1,.454-.38,1.959,1.959,0,0,1,.583-.27,1.172,1.172,0,0,1,.325-.071c.129-.013.186-.028.375-.036a2.95,2.95,0,0,1,.6.1,2.882,2.882,0,0,1,.332.115l.274.16a2.311,2.311,0,0,1,.455.38,2.168,2.168,0,0,1,.291.438,1.378,1.378,0,0,1,.144.414,1.037,1.037,0,0,1,.029.33,2.653,2.653,0,0,1-.043.277l-.11-.247a1.408,1.408,0,0,0-.152-.246,1.891,1.891,0,0,0-.235-.271c-.082-.1-.215-.165-.316-.262a3.863,3.863,0,0,0-.4-.21l-.214-.088a1.7,1.7,0,0,1-.206-.048l-.1-.032-.142-.011-.287-.022a2.7,2.7,0,0,0-.43.059c-.075.022-.153.036-.229.053l-.215.088a3.608,3.608,0,0,0-.4.21c-.1.1-.234.165-.316.262a2.107,2.107,0,0,0-.231.266c-.051.088-.133.157-.154.246-.066.161-.11.252-.11.252" transform="translate(-40.513 -18.966)" fill="#b66037"/>
            <path id="Path_913650" data-name="Path 913650" d="M147.14,82.963a4.864,4.864,0,0,0,3.862,0s-1.672,3-3.862,0" transform="translate(-40.456 -22.811)" fill="#b56e44"/>
            <path id="Path_913651" data-name="Path 913651" d="M143.269,62.639c0,1.083-.637,1.961-1.423,1.961s-1.423-.877-1.423-1.961.637-1.961,1.423-1.961,1.423.879,1.423,1.961" transform="translate(-38.609 -16.683)" fill="#2b1f1c"/>
            <path id="Path_913652" data-name="Path 913652" d="M159.425,62.639c0,1.083-.637,1.961-1.423,1.961s-1.423-.877-1.423-1.961.637-1.961,1.423-1.961,1.423.879,1.423,1.961" transform="translate(-43.051 -16.683)" fill="#2b1f1c"/>
            <path id="Path_913653" data-name="Path 913653" d="M154.2,74.95s-.177.1-.492.263-.763.389-1.322.621c-.285.108-.6.225-.93.336a5.946,5.946,0,0,1-1.072.292,6.194,6.194,0,0,1-1.183.189c-.407.016-.827.067-1.238.051s-.8-.028-1.193-.057c-.408-.051-.807-.131-1.192-.194a6.827,6.827,0,0,1-1.072-.289c-.335-.1-.651-.2-.935-.312a20.209,20.209,0,0,1-1.816-.9s.817.1,1.971.363l.944.141c.332.041.681.136,1.039.15.357.033.726.051,1.1.1.386.018.79.015,1.188.024.388.027.765-.014,1.143-.016a7.976,7.976,0,0,0,1.1-.094,9.3,9.3,0,0,0,1.038-.152c.328-.067.645-.117.938-.165,1.173-.252,1.982-.352,1.982-.352" transform="translate(-38.976 -20.607)" fill="#935837"/>
            <path id="Path_913654" data-name="Path 913654" d="M143.583,54.749s-.138-.038-.365-.091-.538-.129-.891-.205c-.177-.041-.368-.067-.563-.1s-.4-.054-.6-.087a7.864,7.864,0,0,0-1.248-.038c-.21-.015-.414.049-.624.049-.206.032-.408.078-.615.1-.2.05-.4.1-.592.142s-.373.113-.552.155c-.36.088-.653.21-.883.268s-.373.091-.373.091a3.54,3.54,0,0,1,.169-.341,3.215,3.215,0,0,1,.592-.8,3.589,3.589,0,0,1,.5-.458,6.982,6.982,0,0,1,.654-.4,5.966,5.966,0,0,1,.787-.289,4.477,4.477,0,0,1,.866-.128,3.8,3.8,0,0,1,.873.055,3.967,3.967,0,0,1,.81.215,4.361,4.361,0,0,1,.689.344,3.432,3.432,0,0,1,.543.411,3.2,3.2,0,0,1,.652.767,1.87,1.87,0,0,1,.172.346" transform="translate(-37.469 -14.464)" fill="#3a251c"/>
            <path id="Path_913655" data-name="Path 913655" d="M154.546,54.749a1.869,1.869,0,0,1,.172-.346,3.2,3.2,0,0,1,.652-.767,3.433,3.433,0,0,1,.543-.411,4.33,4.33,0,0,1,.689-.344,3.967,3.967,0,0,1,.81-.215,3.8,3.8,0,0,1,.873-.055,4.477,4.477,0,0,1,.866.128,5.968,5.968,0,0,1,.787.289,6.979,6.979,0,0,1,.654.4,3.59,3.59,0,0,1,.5.458,3.214,3.214,0,0,1,.592.8,3.54,3.54,0,0,1,.169.341s-.146-.028-.373-.091-.523-.181-.883-.268c-.179-.042-.357-.114-.552-.155s-.393-.092-.592-.142c-.207-.024-.409-.07-.615-.1-.21,0-.414-.065-.624-.049a7.864,7.864,0,0,0-1.248.038c-.2.033-.408.049-.6.087s-.386.062-.563.1c-.353.076-.666.148-.891.205s-.365.091-.365.091" transform="translate(-42.492 -14.464)" fill="#3a251c"/>
            <path id="Path_913656" data-name="Path 913656" d="M128.843,51.136s2.163-1.12,2.54-5.055S132.7,38,133.6,37.714s5.926,9.061,18.684,7.065c0,0,3.742-1.973,4.337,2.115.587,4.042,1.292,3.938,2.126,3.954s2.952-12.005.007-14.175c0,0,1.931-2.665-4.761-6.62-15.312-9.05-25.154-1.04-25.154,4.645,0,0-5.186,1.6.005,16.438" transform="translate(-34.79 -7.14)" fill="#3a251c"/>
            <g id="Group_1122581" data-name="Group 1122581" transform="translate(91.744 25.103)" opacity="0.6">
              <g id="Group_1122580" data-name="Group 1122580">
                <g id="Group_1122579" data-name="Group 1122579" clip-path="url(#clip-path-21)">
                  <path id="Path_913657" data-name="Path 913657" d="M131.383,48.46c.377-3.936,1.32-8.083,2.216-8.366s5.926,9.061,18.684,7.065c0,0,3.742-1.973,4.337,2.115.587,4.042,1.292,3.938,2.126,3.954s2.952-12.005.007-14.175a1.115,1.115,0,0,0,.105-.2c-.7.568-1.263.966-1.263.966,2.074,2.956.187,6.214.187,6.214a2.331,2.331,0,0,0-2.346-2.013c-12.1,1.193-15.34-8.69-20.623-9.372s-5.974,12.3-5.974,12.3c-1.442-.73-.573-7.239-.171-9.795-.853.445-4.438,3.175.176,16.363,0,0,2.164-1.12,2.54-5.055" transform="translate(-126.535 -34.623)" fill="#281c17"/>
                </g>
              </g>
            </g>
            <path id="Path_913658" data-name="Path 913658" d="M125.247,66.088s-.4,10.436,12.159,14.286" transform="translate(-34.436 -18.171)" fill="none" stroke="#262532" stroke-miterlimit="10" stroke-width="1.499"/>
            <path id="Rectangle_410880" data-name="Rectangle 410880" d="M1.571,0H4.054A1.571,1.571,0,0,1,5.624,1.571v0A1.572,1.572,0,0,1,4.053,3.142H1.572A1.572,1.572,0,0,1,0,1.571v0A1.571,1.571,0,0,1,1.571,0Z" transform="translate(102.007 60.405)" fill="#272435"/>
            <path id="Path_913659" data-name="Path 913659" d="M135.366,103.541l-2.4,10.686,13.128-1.99Z" transform="translate(-36.557 -28.468)" fill="#fff"/>
            <path id="Path_913660" data-name="Path 913660" d="M160.56,103.541l2.158,10.686-12.882-1.99Z" transform="translate(-41.197 -28.468)" fill="#fff"/>
            <path id="Path_913661" data-name="Path 913661" d="M158.712,58.185a5.768,5.768,0,0,0-1.584-.423A2.493,2.493,0,0,0,155.6,57a24.31,24.31,0,0,0-8,.17,2.8,2.8,0,0,0-1.715,1.35,3.671,3.671,0,0,0-2.564.051,2.907,2.907,0,0,0-1.566-.978,24.293,24.293,0,0,0-8,.17,3.156,3.156,0,0,0-1.174.477,6.763,6.763,0,0,0-1.777.531c-.4.29.025,1.528.025,1.528l1.356.388c.119,1.768.55,4.3,2.184,5.175,0,0,1.6,1,4.983.55,3.611-.479,4.271-6.043,4.271-6.043l0-.16a1.766,1.766,0,0,1,2.291.115c.247,1.156,1.347,5.275,4.465,5.555,3.4.306,4.955-.76,4.955-.76,1.5-.89,1.874-3.182,1.951-4.923l1.472-.49s.376-1.255-.038-1.526m-15.95,2.424s-.56,4.726-3.627,5.133a6.8,6.8,0,0,1-4.234-.466c-1.969-1.061-1.882-4.938-1.9-5.791s1.378-1.088,1.378-1.088a20.639,20.639,0,0,1,6.8-.144,2.3,2.3,0,0,1,1.562,1.2Zm12.006,3.945a6.8,6.8,0,0,1-4.209.647c-3.082-.277-3.841-4.975-3.841-4.975l-.025-1.161A2.3,2.3,0,0,1,148.2,57.8a20.6,20.6,0,0,1,6.8-.144s1.4.175,1.423,1.029.27,4.722-1.652,5.865" transform="translate(-35.916 -15.602)" fill="#2b263e"/>
            <path id="Path_913662" data-name="Path 913662" d="M159.731,36.475h0c.291-.686.757-3.1-4.866-6.422-15.312-9.05-25.154-1.04-25.153,4.645,0,0,3.658-9.587,14.957-5.581s14.9,4.746,15.062,7.358" transform="translate(-35.664 -7.14)" fill="#5f3828"/>
            <path id="Path_913663" data-name="Path 913663" d="M171.418,41.169a2.269,2.269,0,0,0-.191-.207.432.432,0,0,0,.191.207" transform="translate(-47.078 -11.262)" fill="#5f3828"/>
          </g>
        </g>
      </g>
    </g>
  </g>
</svg>
