<svg xmlns="http://www.w3.org/2000/svg" xmlns:xlink="http://www.w3.org/1999/xlink" width="73" height="73" viewBox="0 0 73 73">
  <defs>
    <linearGradient id="linear-gradient" x1="0.5" x2="0.5" y2="1" gradientUnits="objectBoundingBox">
      <stop offset="0" stop-color="#ddf1ff"/>
      <stop offset="1" stop-color="#fff"/>
    </linearGradient>
  </defs>
  <g id="img3" transform="translate(-264.528 -6025.861)">
    <g id="Group_1099808" data-name="Group 1099808" transform="translate(264.663 6025.995)">
      <g id="Group_1099775" data-name="Group 1099775" transform="translate(0 0)">
        <g id="Group_1099770" data-name="Group 1099770">
          <rect id="Rectangle_401345" data-name="Rectangle 401345" width="61.989" height="61.989" transform="translate(5.324 5.419)" fill="url(#linear-gradient)"/>
          <path id="Subtraction_141" data-name="Subtraction 141" d="M63.019,73,0,63.018,9.984,0,73,9.982,63.019,73h0ZM13.771,5.215,5.213,59.229l54.017,8.555,8.556-54.016L13.77,5.215Z" transform="translate(-0.135 -0.134)" fill="#59c4c8"/>
        </g>
      </g>
      <g id="Group_1099776" data-name="Group 1099776" transform="translate(14.784 14.782)">
        <g id="Group_1099618" data-name="Group 1099618" transform="translate(0 0)">
          <rect id="Rectangle_401104" data-name="Rectangle 401104" width="42.655" height="43.169" transform="translate(0)" fill="none"/>
        </g>
        <g id="Group_1122192" data-name="Group 1122192" transform="translate(-0.907 0.001)">
          <path id="Path_912227" data-name="Path 912227" d="M36,44h1.349V57.49H36Z" transform="translate(-11.066 -14.321)" fill="#445866"/>
          <path id="Path_912228" data-name="Path 912228" d="M31,50h1.349v9.443H31Z" transform="translate(-9.439 -16.274)" fill="#445866"/>
          <path id="Path_912229" data-name="Path 912229" d="M30.047,20.769A4.051,4.051,0,0,1,26,16.722v-.675a4.047,4.047,0,0,1,8.094,0v.675A4.051,4.051,0,0,1,30.047,20.769Zm0-7.42a2.7,2.7,0,0,0-2.7,2.7v.675a2.7,2.7,0,1,0,5.4,0v-.675A2.7,2.7,0,0,0,30.047,13.349Z" transform="translate(-7.812 -3.906)" fill="#445866"/>
          <path id="Path_912230" data-name="Path 912230" d="M33.479,40.839a2.361,2.361,0,0,1-2.361-2.361V32.071h1.349v6.408a1.012,1.012,0,0,0,2.024,0V29.373a2.024,2.024,0,0,0-2.024-2.024H24.373a2.024,2.024,0,0,0-2.024,2.024v9.106a1.012,1.012,0,0,0,2.024,0V32.071h1.349v6.408a2.361,2.361,0,0,1-4.722,0V29.373A3.377,3.377,0,0,1,24.373,26h8.094a3.377,3.377,0,0,1,3.373,3.373v9.106a2.361,2.361,0,0,1-2.361,2.361Z" transform="translate(-6.184 -8.463)" fill="#445866"/>
          <path id="Path_912231" data-name="Path 912231" d="M26,44h1.349V57.49H26Z" transform="translate(-7.812 -14.321)" fill="#445866"/>
          <path id="Path_912232" data-name="Path 912232" d="M55,41h1.349V54.49H55Z" transform="translate(-17.251 -13.345)" fill="#445866"/>
          <path id="Path_912233" data-name="Path 912233" d="M50,47h1.349v9.443H50Z" transform="translate(-15.623 -15.298)" fill="#445866"/>
          <path id="Path_912234" data-name="Path 912234" d="M49.047,17.769A4.051,4.051,0,0,1,45,13.722v-.675a4.047,4.047,0,1,1,8.094,0v.675A4.051,4.051,0,0,1,49.047,17.769Zm0-7.42a2.7,2.7,0,0,0-2.7,2.7v.675a2.7,2.7,0,1,0,5.4,0v-.675A2.7,2.7,0,0,0,49.047,10.349Z" transform="translate(-13.996 -2.929)" fill="#445866"/>
          <path id="Path_912235" data-name="Path 912235" d="M53.029,37.839a2.361,2.361,0,0,1-2.361-2.361V29.071h1.349v6.408a1.012,1.012,0,1,0,2.024,0V26.373a2.024,2.024,0,0,0-2.024-2.024H43.923a2.016,2.016,0,0,0-1.338.506l-.894-1.012A3.373,3.373,0,0,1,43.923,23h8.094a3.377,3.377,0,0,1,3.373,3.373v9.106a2.361,2.361,0,0,1-2.361,2.361Z" transform="translate(-12.919 -7.486)" fill="#445866"/>
          <path id="Path_912236" data-name="Path 912236" d="M45,32h1.349V51.561H45Z" transform="translate(-13.996 -10.415)" fill="#445866"/>
          <path id="Path_912237" data-name="Path 912237" d="M12,47h1.349v9.443H12Z" transform="translate(-3.255 -15.298)" fill="#445866"/>
          <path id="Path_912238" data-name="Path 912238" d="M11.047,17.769A4.051,4.051,0,0,1,7,13.722v-.675a4.047,4.047,0,0,1,8.094,0v.675A4.051,4.051,0,0,1,11.047,17.769Zm0-7.42a2.7,2.7,0,0,0-2.7,2.7v.675a2.7,2.7,0,1,0,5.4,0v-.675A2.7,2.7,0,0,0,11.047,10.349Z" transform="translate(-1.627 -2.929)" fill="#445866"/>
          <path id="Path_912239" data-name="Path 912239" d="M22.047,8.769A4.051,4.051,0,0,1,18,4.722V4.047a4.047,4.047,0,1,1,8.094,0v.675a4.051,4.051,0,0,1-4.047,4.047Zm0-7.42a2.7,2.7,0,0,0-2.7,2.7v.675a2.7,2.7,0,0,0,5.4,0V4.047A2.7,2.7,0,0,0,22.047,1.349Z" transform="translate(-5.208)" fill="#445866"/>
          <path id="Path_912240" data-name="Path 912240" d="M38.047,8.769A4.051,4.051,0,0,1,34,4.722V4.047a4.047,4.047,0,1,1,8.094,0v.675A4.051,4.051,0,0,1,38.047,8.769Zm0-7.42a2.7,2.7,0,0,0-2.7,2.7v.675a2.7,2.7,0,1,0,5.4,0V4.047A2.7,2.7,0,0,0,38.047,1.349Z" transform="translate(-10.415)" fill="#445866"/>
          <path id="Path_912241" data-name="Path 912241" d="M4.361,37.839A2.361,2.361,0,0,1,2,35.479V26.373A3.377,3.377,0,0,1,5.373,23h8.094a3.373,3.373,0,0,1,2.232.844L14.8,24.855a2.016,2.016,0,0,0-1.338-.506H5.373a2.024,2.024,0,0,0-2.024,2.024v9.106a1.012,1.012,0,0,0,2.024,0V29.071H6.722v6.408A2.361,2.361,0,0,1,4.361,37.839Z" transform="translate(0 -7.486)" fill="#445866"/>
          <path id="Path_912242" data-name="Path 912242" d="M7,41H8.349V54.49H7Z" transform="translate(-1.627 -13.345)" fill="#445866"/>
          <path id="Path_912243" data-name="Path 912243" d="M17,32h1.349V51.561H17Z" transform="translate(-4.882 -10.415)" fill="#445866"/>
        </g>
      </g>
    </g>
  </g>
</svg>
