<svg xmlns="http://www.w3.org/2000/svg" xmlns:xlink="http://www.w3.org/1999/xlink" width="73" height="73" viewBox="0 0 73 73">
  <defs>
    <linearGradient id="linear-gradient" x1="0.5" x2="0.5" y2="1" gradientUnits="objectBoundingBox">
      <stop offset="0" stop-color="#ddf1ff"/>
      <stop offset="1" stop-color="#fff"/>
    </linearGradient>
  </defs>
  <g id="img4" transform="translate(-264.528 -6025.861)">
    <g id="Group_1099808" data-name="Group 1099808" transform="translate(264.663 6025.995)">
      <g id="Group_1099775" data-name="Group 1099775" transform="translate(0 0)">
        <g id="Group_1099770" data-name="Group 1099770">
          <rect id="Rectangle_401345" data-name="Rectangle 401345" width="61.989" height="61.989" transform="translate(5.324 5.419)" fill="url(#linear-gradient)"/>
          <path id="Subtraction_141" data-name="Subtraction 141" d="M63.019,73,0,63.018,9.984,0,73,9.982,63.019,73h0ZM13.771,5.215,5.213,59.229l54.017,8.555,8.556-54.016L13.77,5.215Z" transform="translate(-0.135 -0.134)" fill="#59c4c8"/>
        </g>
      </g>
      <g id="Group_1099776" data-name="Group 1099776" transform="translate(14.784 14.782)">
        <g id="Group_1099618" data-name="Group 1099618" transform="translate(0 0)">
          <rect id="Rectangle_401104" data-name="Rectangle 401104" width="42.655" height="43.169" transform="translate(0)" fill="none"/>
        </g>
        <path id="Path_912244" data-name="Path 912244" d="M51.082,24.726V38.2a.467.467,0,0,1-.035.191,80.44,80.44,0,0,1-7.409,15.7l.53,4a.619.619,0,0,1-.521.686c-.026,0-.052.009-.078.009a.6.6,0,0,1-.6-.53l-.556-4.213a.592.592,0,0,1,.087-.4A79.589,79.589,0,0,0,49.883,38.1V24.726a.075.075,0,0,0-.069-.069,2.392,2.392,0,0,0-2.328,2.363L46.964,36.1a.625.625,0,0,1-.113.321L42.561,42.28l-.947,4.247a.6.6,0,1,1-1.181-.261l1.937-8.886a1.381,1.381,0,0,0-.695-1.676c-.591-.243-1.451-.078-1.954,1.155L35.473,47.292a10.489,10.489,0,0,0-.651,4.96l.417,5.872a.61.61,0,0,1-1.216.087l-.417-5.872a11.651,11.651,0,0,1,.738-5.507L38.591,36.4a2.7,2.7,0,0,1,3.544-1.824,2.568,2.568,0,0,1,1.433,3.057l-.373,1.7,2.562-3.5.512-8.894A3.589,3.589,0,0,1,49.8,23.432a1.294,1.294,0,0,1,1.277,1.294ZM20.49,36.4c-.782-1.92-2.38-2.293-3.535-1.824a2.559,2.559,0,0,0-1.433,3.057l.373,1.7-2.562-3.5-.512-8.894a3.581,3.581,0,0,0-3.535-3.5A1.283,1.283,0,0,0,8,24.726V38.2a.467.467,0,0,0,.035.191,79.91,79.91,0,0,0,7.409,15.7l-.53,4a.619.619,0,0,0,.521.686c.026,0,.052.009.078.009a.6.6,0,0,0,.6-.53l.556-4.213a.592.592,0,0,0-.087-.4A79.064,79.064,0,0,1,9.2,38.1V24.726a.075.075,0,0,1,.069-.069A2.392,2.392,0,0,1,11.6,27.019l.521,9.077a.625.625,0,0,0,.113.321l4.291,5.863.929,4.247a.6.6,0,0,0,1.181-.261l-1.937-8.886a1.381,1.381,0,0,1,.695-1.676c.591-.243,1.451-.078,1.954,1.155l4.247,10.432a10.489,10.489,0,0,1,.651,4.96l-.417,5.872a.61.61,0,0,0,1.216.087l.417-5.872a11.651,11.651,0,0,0-.738-5.507Zm9.329,7.722a.591.591,0,0,1-.556,0,16.5,16.5,0,0,1-5.8-4.569A6.714,6.714,0,0,1,22,35.045a5.169,5.169,0,0,1,.339-1.468h-6.1a.6.6,0,0,1-.608-.608V27.74A3.452,3.452,0,0,1,18.988,24.4a4.936,4.936,0,0,1-.9-2.9,3.248,3.248,0,1,1,6.5,0,4.936,4.936,0,0,1-.9,2.9,3.747,3.747,0,0,1,1.225.278,3.93,3.93,0,0,1,2.232-.773,5.191,5.191,0,0,1-1.016-3.162,3.44,3.44,0,1,1,6.879,0A5.191,5.191,0,0,1,31.981,23.9a3.93,3.93,0,0,1,2.232.773A3.874,3.874,0,0,1,35.43,24.4a4.876,4.876,0,0,1-.9-2.9,3.24,3.24,0,1,1,6.48,0,4.936,4.936,0,0,1-.9,2.9,3.446,3.446,0,0,1,3.353,3.344v5.229a.6.6,0,0,1-.608.608h-6.1a5.169,5.169,0,0,1,.339,1.468,6.806,6.806,0,0,1-1.459,4.508,16.541,16.541,0,0,1-5.811,4.569ZM39.894,25.6H35.621a2.5,2.5,0,0,0-.512.052,3.327,3.327,0,0,1,.512,1.781v4.4a5.108,5.108,0,0,1,.452.521h3.414V29.035a.608.608,0,1,1,1.216,0v3.318h1.529V27.732A2.233,2.233,0,0,0,39.894,25.6ZM35.725,21.5c0,1.2.625,2.892,2.032,2.892S39.79,22.694,39.79,21.5a2.032,2.032,0,1,0-4.065,0Zm-8.408-.764c0,1.312.695,3.162,2.224,3.162s2.224-1.85,2.224-3.162a2.224,2.224,0,1,0-4.447,0Zm-2.64,6.714V30.98a4.761,4.761,0,0,1,.486-.2,4.6,4.6,0,0,1,.816-.182v-2.64a.608.608,0,1,1,1.216,0v2.71A3.748,3.748,0,0,1,29.185,31.9l.356.4.356-.4a3.891,3.891,0,0,1,1.989-1.233v-2.71a.608.608,0,1,1,1.216,0V30.6a3.55,3.55,0,0,1,.816.182,3.369,3.369,0,0,1,.486.2V27.445a2.46,2.46,0,0,0-2.562-2.336H27.248a2.462,2.462,0,0,0-2.571,2.336ZM19.292,21.5c0,1.2.625,2.892,2.032,2.892s2.032-1.694,2.032-2.892a2.032,2.032,0,0,0-4.065,0Zm3.718,10.866a6.474,6.474,0,0,1,.452-.521v-4.4a3.436,3.436,0,0,1,.512-1.789,2.5,2.5,0,0,0-.512-.052H19.187a2.247,2.247,0,0,0-2.345,2.128v4.621h1.529V29.035a.608.608,0,1,1,1.216,0v3.318h3.422Zm12.864,2.771a3.619,3.619,0,0,0-2.336-3.2,2.464,2.464,0,0,0-2.727.773L30,33.629a.605.605,0,0,1-.46.208.619.619,0,0,1-.46-.208l-.808-.921a2.46,2.46,0,0,0-2.727-.773,3.619,3.619,0,0,0-2.336,3.2c-.208,2.684,2.093,5.5,6.332,7.756,4.239-2.258,6.54-5.073,6.332-7.756Zm-2.962,1.259V38.38a.6.6,0,0,1-.608.608H31.139v1.164a.6.6,0,0,1-.608.608H28.542a.6.6,0,0,1-.608-.608V38.988H26.77a.6.6,0,0,1-.608-.608V36.391a.6.6,0,0,1,.608-.608h1.164V34.619a.6.6,0,0,1,.608-.608h1.989a.6.6,0,0,1,.608.608v1.164H32.3A.6.6,0,0,1,32.911,36.391ZM31.695,37H30.531a.6.6,0,0,1-.608-.608V35.227H29.15v1.164a.6.6,0,0,1-.608.608H27.378v.773h1.164a.6.6,0,0,1,.608.608v1.164h.773V38.38a.6.6,0,0,1,.608-.608h1.164Z" transform="translate(-8 -16.662)" fill="#445866"/>
      </g>
    </g>
  </g>
</svg>
