<svg xmlns="http://www.w3.org/2000/svg" width="139" height="138.999" viewBox="0 0 139 138.999">
  <g id="img5" transform="translate(-173 -7366)">
    <g id="Group_1099775" data-name="Group 1099775" transform="translate(-407 1749.16)">
      <g id="Group_1099770" data-name="Group 1099770" transform="translate(580 5616.839)">
        <rect id="Rectangle_401345" data-name="Rectangle 401345" width="120.838" height="120.838" transform="translate(9 9.161)" fill="#fff"/>
        <path id="Subtraction_141" data-name="Subtraction 141" d="M119.994,139,0,119.993,19.01,0,139,19.008,119.994,139v0h0v0ZM26.221,9.932,9.926,112.779l102.854,16.29L129.07,26.218,26.219,9.932Z" fill="#9ac1df"/>
      </g>
    </g>
    <g id="Group_1099776" data-name="Group 1099776" transform="translate(201.414 7393.395)">
      <g id="Group_1099618" data-name="Group 1099618" transform="translate(0 0)">
        <rect id="Rectangle_401104" data-name="Rectangle 401104" width="81.642" height="82.626" fill="none"/>
      </g>
      <path id="Path_913664" data-name="Path 913664" d="M142.366,67.8a14.546,14.546,0,0,0-4.125-6.82,15.952,15.952,0,0,0-3.761-2.577,4.915,4.915,0,0,0-3.288-5.6c-.042-.013-.084-.023-.124-.035a16.551,16.551,0,0,0-7.589-12.149,21.515,21.515,0,0,1-6.906-6.577l1.6.353a5.118,5.118,0,0,0,4.68-1.316,11.811,11.811,0,0,0,3.674-7.987l.984-.382a2.256,2.256,0,0,0,1.049-3.368l-.976-1.439a5.31,5.31,0,0,1-.873-3.658l.39-3.03a10.836,10.836,0,0,0-2.331-8.2,1.286,1.286,0,0,0-.261-.314c-.006-.006-.011-.014-.018-.021A10.842,10.842,0,0,0,116.36,1h-7.594A10.767,10.767,0,0,0,98.673,7.9a14.811,14.811,0,0,0-.92,3.752,8.295,8.295,0,1,0,4.738,15.429l-.035.251a104.163,104.163,0,0,0-.973,12.038,6.4,6.4,0,0,0-.851,3.193V55.154a26.424,26.424,0,0,0,4.3,14.49,16.79,16.79,0,0,1-3.724,10.261l-.931,1.15a1.288,1.288,0,1,0,2,1.621l.931-1.15a19.314,19.314,0,0,0,4.011-8.866q.367.42.754.826l8.845,9.269a1.289,1.289,0,1,0,1.865-1.778l-8.845-9.269a23.887,23.887,0,0,1-6.629-16.555V42.56a3.866,3.866,0,0,1,7.732,0V59.078a15.23,15.23,0,0,0,3.368,9.535l11.353,14.063a1.289,1.289,0,0,0,2.006-1.619L116.315,66.994a12.639,12.639,0,0,1-2.8-7.916V42.56a6.659,6.659,0,0,0-.072-.971,20.216,20.216,0,0,0,7.275,1.384q.773,0,1.553-.061a13.97,13.97,0,0,1,6.192,9.8,4.913,4.913,0,0,0-2.626,1.661l-.949,1.168a4.914,4.914,0,0,0,2.384,7.8l.242.074a4.942,4.942,0,0,0,1.445.216,4.885,4.885,0,0,0,4.253-2.486l.217-.382a12.1,12.1,0,0,1,6.447,7.718,12.877,12.877,0,0,1-3.235,12.442,1.289,1.289,0,0,0,1.753,1.891A15.347,15.347,0,0,0,142.366,67.8ZM101.075,8.835a8.2,8.2,0,0,1,7.692-5.258h7.594a8.261,8.261,0,0,1,5.82,2.4,5.444,5.444,0,0,1-5.564,3.212,2.59,2.59,0,0,0-2.648,1.894,13,13,0,0,1-2.956,5.2,3.651,3.651,0,0,0-4.04-.329,4.481,4.481,0,0,0-2.3,4.365,4.726,4.726,0,0,0,.638,2.192,3.014,3.014,0,0,1-1.107.813l-2.152-3.515A12.467,12.467,0,0,1,101.075,8.835Zm-8.5,11.092a5.727,5.727,0,0,1,5.111-5.686,15.014,15.014,0,0,0,2.165,6.914l1.989,3.251a5.712,5.712,0,0,1-9.266-4.478Zm11.574,16.893c.148-3.054.433-6.115.855-9.134l.072-.517a5.569,5.569,0,0,0,.015-1.418,5.835,5.835,0,0,0,1.975-1.342,6.658,6.658,0,0,0,3.438,1.229c.039,0,.077,0,.114,0a1.289,1.289,0,0,0,.111-2.573,3.923,3.923,0,0,1-3.12-1.772c-.04-.061-.082-.119-.127-.177a2.106,2.106,0,0,1-.243-1.023,1.909,1.909,0,0,1,.944-1.873,1.128,1.128,0,0,1,1.352.168,2.557,2.557,0,0,0,3.405-.4,15.612,15.612,0,0,0,3.523-6.228,8.083,8.083,0,0,0,7.362-3.454,8.248,8.248,0,0,1,.723,4.572l-.39,3.03a7.876,7.876,0,0,0,1.3,5.433l.749,1.105-.709.275a2.426,2.426,0,0,0-1.53,2.1,9.357,9.357,0,0,1-2.9,6.4,2.55,2.55,0,0,1-2.331.649L112.509,30.5a1.288,1.288,0,1,0-.554,2.516l1.276.28a20.575,20.575,0,0,0,5.409,6.952,19.974,19.974,0,0,1-7.081-2.376c-.035-.019-.072-.037-.11-.053a6.443,6.443,0,0,0-7.3-1Zm27.531,21.8-.707,1.24a2.325,2.325,0,0,1-2.709,1.079l-.242-.074a2.335,2.335,0,0,1-1.134-3.707L127.839,56a2.348,2.348,0,0,1,1.82-.862,2.3,2.3,0,0,1,.725.116,2.336,2.336,0,0,1,1.3,3.375Z" transform="translate(-75.635 -0.765)" fill="#445866"/>
    </g>
  </g>
</svg>
