<svg xmlns="http://www.w3.org/2000/svg" width="139" height="138.999" viewBox="0 0 139 138.999">
  <g id="img6" transform="translate(-173 -7366)">
    <g id="Group_1099775" data-name="Group 1099775" transform="translate(-407 1749.16)">
      <g id="Group_1099770" data-name="Group 1099770" transform="translate(580 5616.839)">
        <rect id="Rectangle_401345" data-name="Rectangle 401345" width="120.838" height="120.838" transform="translate(9 9.161)" fill="#fff"/>
        <path id="Subtraction_141" data-name="Subtraction 141" d="M119.994,139,0,119.993,19.01,0,139,19.008,119.994,139v0h0v0ZM26.221,9.932,9.926,112.779l102.854,16.29L129.07,26.218,26.219,9.932Z" fill="#59c4c8"/>
      </g>
    </g>
    <g id="Group_1099776" data-name="Group 1099776" transform="translate(201.414 7393.395)">
      <g id="Group_1099618" data-name="Group 1099618" transform="translate(0 0)">
        <rect id="Rectangle_401104" data-name="Rectangle 401104" width="81.642" height="82.626" fill="none"/>
      </g>
      <g id="Group_1122587" data-name="Group 1122587" transform="translate(-21.034 1.191)">
        <g id="Group_1122586" data-name="Group 1122586" transform="translate(25.778 0)">
          <path id="Path_913665" data-name="Path 913665" d="M199.251,28.94C201.134,13.662,189.864.075,174.3.005c-13.432-.284-25.384,11.667-25.1,25.1,0,4.256.007,10.886.014,16.006a4.173,4.173,0,0,0-1.929,1.99,5.022,5.022,0,0,0,1.941,6.183v.878c.008,5.331.012,8.007.012,14.474.862,20.812,30.516,20.8,31.374,0a28.254,28.254,0,0,1,.363-4.735,9.2,9.2,0,0,0,8.247,5.343,8.481,8.481,0,0,0,.932-.051c3.667-.405,6.708-3.139,8.343-7.5,2-5.331,1.809-14.222.753-28.753Zm-36.864,2.47a15.133,15.133,0,0,1-1.235-1.886c4.491-4.412,10.048-4.543,12.24-.323h-2.843a1.569,1.569,0,0,0,0,3.137h3.512q0,.189-.009.382a7.175,7.175,0,0,1-.568,2.756h-2.523a1.57,1.57,0,0,0-.422,3.08,12.4,12.4,0,0,0-1.525,1.588,25.018,25.018,0,0,0-1.44,2.137c-1.331,2.116-2.988,4.749-5.462,6.116-2.838,1.568-6.284,1.137-10.534-1.317-1.565-.9-1.761-1.991-1.452-2.647a1.124,1.124,0,0,1,1.527-.519c.419.155.859.336,1.325.528,1.824.753,3.891,1.606,5.91,1.286,3.692-.584,5.685-4.9,5.685-8.67a8.886,8.886,0,0,0-2.185-5.648Zm13.588-14.58c-5.649-2.358-12.269.663-15.574,5.78A14.119,14.119,0,0,1,188.417,25.1c0,8.765-4.772,12.065-9.824,15.559-4.406,3.047-8.961,6.2-8.961,12.991a4.706,4.706,0,1,1-9.412-.011c0-.448.007-.893.029-1.329,4.748-.643,8.031-5.086,9.98-8.363.476-.757.888-1.41,1.243-1.859a12.283,12.283,0,0,1,1.9-1.826,8.829,8.829,0,0,0,3.816-7.408c.186-4.215-1.86-7.727-5.341-9.166a9.953,9.953,0,0,0-6.754-.2,12.941,12.941,0,0,0-2.064.831c2.526-3.877,7.479-6.361,11.775-4.586a1.569,1.569,0,1,0,1.172-2.91ZM164.926,77.186a12.564,12.564,0,0,1-12.55-12.55c0-6.118,0-8.844-.011-13.633a16.482,16.482,0,0,0,4.74,1.363c-.019.427-.027.857-.023,1.288.43,10.4,15.256,10.406,15.687,0,0-5.148,3.358-7.47,7.609-10.41a31.626,31.626,0,0,0,7.486-6.465c5.19-6.484,5.038-17.833-1.383-23.857C175.637,2.053,157.094,9.847,157.044,25.1c-.021,7.307,4.327,7.948,4.391,11.954,0,2.408-1.248,5.288-3.038,5.571-1.148.181-2.711-.464-4.223-1.087-.472-.195-.96-.4-1.436-.572q-.193-.071-.387-.125c-.007-5.082-.014-11.559-.014-15.741A21.987,21.987,0,0,1,174.3,3.143c13.767.051,23.563,12.136,21.827,25.585a1.562,1.562,0,0,0-.015.183c-.827,9.853-4.945,13.238-9.277,16.8-4.6,3.782-9.358,7.692-9.358,18.927A12.564,12.564,0,0,1,164.926,77.186ZM195.56,56.593c-1.222,3.26-3.264,5.207-5.749,5.482-4.62.376-8.485-4.394-5.413-9.829,4.155-4.708,9.21-6.681,12.336-13.208C197.12,47.434,196.89,53.044,195.56,56.593Z" transform="translate(-127.876 0)" fill="#445866"/>
          <path id="Path_913666" data-name="Path 913666" d="M82.806,189.923a1.569,1.569,0,0,0,0,2.219,11.032,11.032,0,0,1,0,15.529,1.569,1.569,0,0,0,2.219,2.219,14.185,14.185,0,0,0,0-19.966A1.569,1.569,0,0,0,82.806,189.923Z" transform="translate(-73.472 -159.743)" fill="#445866"/>
          <path id="Path_913667" data-name="Path 913667" d="M56.74,218.207a1.569,1.569,0,0,0-2.219,2.219,4.728,4.728,0,0,1,0,6.656A1.569,1.569,0,0,0,56.74,229.3,7.881,7.881,0,0,0,56.74,218.207Z" transform="translate(-49.625 -183.59)" fill="#445866"/>
          <path id="Path_913668" data-name="Path 913668" d="M27.347,246.028a1.569,1.569,0,0,0-1.569,1.569h0a1.569,1.569,0,1,0,1.569-1.57Z" transform="translate(-25.778 -207.433)" fill="#445866"/>
          <path id="Path_913669" data-name="Path 913669" d="M353.617,139.921a1.569,1.569,0,0,0,0-3.137h0A1.569,1.569,0,0,0,353.617,139.921Z" transform="translate(-300.872 -115.327)" fill="#445866"/>
          <path id="Path_913670" data-name="Path 913670" d="M404.482,351.755h0a1.569,1.569,0,1,0,1.57,1.569A1.568,1.568,0,0,0,404.481,351.755Z" transform="translate(-343.751 -296.575)" fill="#445866"/>
          <path id="Path_913671" data-name="Path 913671" d="M424.732,318.005h0a1.569,1.569,0,1,0,1.57,1.569A1.568,1.568,0,0,0,424.731,318.005Z" transform="translate(-360.825 -268.119)" fill="#445866"/>
        </g>
      </g>
    </g>
  </g>
</svg>
