<svg xmlns="http://www.w3.org/2000/svg" xmlns:xlink="http://www.w3.org/1999/xlink" width="73" height="73" viewBox="0 0 73 73">
  <defs>
    <linearGradient id="linear-gradient" x1="0.5" x2="0.5" y2="1" gradientUnits="objectBoundingBox">
      <stop offset="0" stop-color="#ddf1ff"/>
      <stop offset="1" stop-color="#fff"/>
    </linearGradient>
  </defs>
  <g id="img6" transform="translate(-264.528 -6025.861)">
    <g id="Group_1099808" data-name="Group 1099808" transform="translate(264.663 6025.995)">
      <g id="Group_1099775" data-name="Group 1099775" transform="translate(0 0)">
        <g id="Group_1099770" data-name="Group 1099770">
          <rect id="Rectangle_401345" data-name="Rectangle 401345" width="61.989" height="61.989" transform="translate(5.324 5.419)" fill="url(#linear-gradient)"/>
          <path id="Subtraction_141" data-name="Subtraction 141" d="M63.019,73,0,63.018,9.984,0,73,9.982,63.019,73h0ZM13.771,5.215,5.213,59.229l54.017,8.555,8.556-54.016L13.77,5.215Z" transform="translate(-0.135 -0.134)" fill="#59c4c8"/>
        </g>
      </g>
      <g id="Group_1099776" data-name="Group 1099776" transform="translate(14.784 14.782)">
        <g id="Group_1099618" data-name="Group 1099618" transform="translate(0 0)">
          <rect id="Rectangle_401104" data-name="Rectangle 401104" width="42.655" height="43.169" transform="translate(0)" fill="none"/>
        </g>
        <g id="Group_1122193" data-name="Group 1122193" transform="translate(-4.584 -3.594)">
          <path id="Path_912245" data-name="Path 912245" d="M44,43.758V55.105a.756.756,0,0,0,1.513,0V43.758A.756.756,0,0,0,44,43.758Z" transform="translate(-9.011 -9.5)" fill="#445866"/>
          <path id="Path_912246" data-name="Path 912246" d="M38.35,11.023a3.858,3.858,0,0,0,.378-2.312l-.224-1.5a3.687,3.687,0,0,0-4.2-3.167,3.78,3.78,0,0,0-3.058,4.321l.224,1.5a3.842,3.842,0,0,0,.4,1.207,7.146,7.146,0,0,0-4.9,4.66l-1.029,3.162a.746.746,0,0,0,.315.857l-.454,1.877-.505.244-2.93-2.864a3.372,3.372,0,0,0,.511-1.771A8.584,8.584,0,0,0,22.848,16a3.95,3.95,0,0,0-.076-3.425,3.67,3.67,0,0,0-3.2-1.737,3.288,3.288,0,1,0-5.152,4.023,2.367,2.367,0,0,0,.392,1.645A13.95,13.95,0,0,0,7.75,27.229L7,41.783a.757.757,0,0,0,.756.8h3.026v3.026a.756.756,0,0,0,1.513,0V42.58h2.269v3.026a.756.756,0,0,0,1.513,0V42.58h2.269v3.026a.756.756,0,0,0,1.513,0V42.58h1.513a.756.756,0,0,0,.756-.756V29.36a3.3,3.3,0,0,0,1.658-2.4l1.187.753A.755.755,0,0,0,25.8,27.7l1.711-1.135,2.267,1.7a2.56,2.56,0,0,0,.674.359V45.605a.756.756,0,0,0,1.513,0V31.233h7.565V45.605a.756.756,0,0,0,1.513,0V32.325a2.377,2.377,0,0,0,3.782-1.849V19.129a8.346,8.346,0,0,0-6.473-8.106Zm-5.359,1.364a3.526,3.526,0,0,0,4.226-.023l.175.02a6.838,6.838,0,0,1-2.436,3.534,5.931,5.931,0,0,1-2.423-3.459c.15-.033.3-.051.458-.073ZM34.55,5.539a2.175,2.175,0,0,1,2.458,1.9l.224,1.5a2.263,2.263,0,0,1-1.8,2.6,2.175,2.175,0,0,1-2.458-1.9l-.223-1.5a2.262,2.262,0,0,1,1.8-2.6ZM19.392,15.67a4.662,4.662,0,0,0,1.959.62,8.835,8.835,0,0,1,.021.948,1.89,1.89,0,0,1-3.746.358A6.13,6.13,0,0,0,19.392,15.67Zm-4.316-3.62a1.783,1.783,0,0,1,1.6-1.26,1.8,1.8,0,0,1,1.732,1.074.766.766,0,0,0,.7.459,2.469,2.469,0,0,1,2.344.99,2.3,2.3,0,0,1,.2,1.486,3.422,3.422,0,0,1-2.032-.825.721.721,0,0,0-1.223.286,4.62,4.62,0,0,1-1.644,2.108,2.032,2.032,0,0,1-.741-.79.885.885,0,0,1-.048-.713.828.828,0,0,0-.252-.881,1.782,1.782,0,0,1-.635-1.936Zm5.54,29.017H8.553l.705-13.72a12.4,12.4,0,0,1,6.667-9.718c.066.041.135.073.2.11A3.368,3.368,0,0,0,21.2,20.157a1.909,1.909,0,1,1-3.622,1.071.756.756,0,0,0-1.5.214,3.423,3.423,0,0,0,6.2,1.465c.207,1.343.415,3.639-.393,4.725a1.673,1.673,0,0,1-2.06.368.757.757,0,0,0-1.471.344c.095.511.676,1.375,2.256,1.375Zm4.754-14.9-1.394-.885a15.655,15.655,0,0,0-.226-2.815l.875.856a.748.748,0,0,0,.768.168,2.551,2.551,0,0,0,.846,2.1Zm1.947-1.637a1.05,1.05,0,0,1-.391-1.089L27.7,20.27l1.893.631-.558,1.927a.756.756,0,0,0,.262.807l2.76,2.151c.865.675-.382,2.013-1.368,1.272Zm4.645,5.186V28.692a2.345,2.345,0,0,0,1.019-4.1l-2.356-1.837.4-1.387a.743.743,0,0,0,.9-.488l.756-2.269a.756.756,0,0,0-1.435-.479l-.517,1.552L27.62,18.648l.8-2.446a5.622,5.622,0,0,1,2.7-3.208,7.5,7.5,0,0,0,3.462,4.5.757.757,0,0,0,.874-.035,8.7,8.7,0,0,0,3.407-4.717,6.836,6.836,0,0,1,4.453,6.388V21.4H41.041V19.886a.756.756,0,0,0-1.513,0V29.72Zm9.078,0V22.912H43.31v7.565C43.31,31.762,41.041,31.332,41.041,29.72Z" transform="translate(0 0)" fill="#445866"/>
          <path id="Path_912247" data-name="Path 912247" d="M18.3,35.071V33.054a.756.756,0,0,0,.756-.756V30.784a.756.756,0,0,0-1.513,0v.756H14.513V27.758a.756.756,0,0,0-1.513,0V32.3a.756.756,0,0,0,.756.756v3.026a.761.761,0,0,0,.127.42l1.69,2.535a2.732,2.732,0,0,0,4.2.416,1.688,1.688,0,0,0,.156-2.194Zm-.57,3.66a1.218,1.218,0,0,1-.894-.536L15.269,35.85v-2.8h1.513v2.269a.754.754,0,0,0,.151.454l1.789,2.385C18.925,38.433,18.184,38.77,17.726,38.731Z" transform="translate(-1.461 -5.603)" fill="#445866"/>
        </g>
      </g>
    </g>
  </g>
</svg>
