<svg xmlns="http://www.w3.org/2000/svg" width="139" height="138.999" viewBox="0 0 139 138.999">
  <g id="img7" transform="translate(-173 -7366)">
    <g id="Group_1099775" data-name="Group 1099775" transform="translate(-407 1749.16)">
      <g id="Group_1099770" data-name="Group 1099770" transform="translate(580 5616.839)">
        <rect id="Rectangle_401345" data-name="Rectangle 401345" width="120.838" height="120.838" transform="translate(9 9.161)" fill="#fff"/>
        <path id="Subtraction_141" data-name="Subtraction 141" d="M119.994,139,0,119.993,19.01,0,139,19.008,119.994,139v0h0v0ZM26.221,9.932,9.926,112.779l102.854,16.29L129.07,26.218,26.219,9.932Z" fill="#b5aae8"/>
      </g>
    </g>
    <g id="Group_1099776" data-name="Group 1099776" transform="translate(201.414 7393.395)">
      <g id="Group_1099618" data-name="Group 1099618" transform="translate(0 0)">
        <rect id="Rectangle_401104" data-name="Rectangle 401104" width="81.642" height="82.626" fill="none"/>
      </g>
      <g id="Layer_6" data-name="Layer 6" transform="translate(2.088 -0.794)">
        <path id="Path_913672" data-name="Path 913672" d="M13.641,75.164a9,9,0,0,1,7.627-8.892L23.036,66a3.912,3.912,0,0,0-.151,1.023v1.321A3.933,3.933,0,0,0,24.3,71.351a6.067,6.067,0,0,0-1.413,3.908v1.009a1.321,1.321,0,0,0,1.321,1.321h5.282a1.321,1.321,0,0,0,1.321-1.321V75.254a6.075,6.075,0,0,0-1.412-3.9,3.941,3.941,0,0,0,1.412-3.007V67.023a3.921,3.921,0,0,0-.629-2.122l2.715-.419L37.7,70.49a1.321,1.321,0,0,0,2.063,0l4.806-6.007,2.715.419a3.921,3.921,0,0,0-.629,2.122v1.321a3.933,3.933,0,0,0,1.413,3.007,6.067,6.067,0,0,0-1.413,3.908v1.009a1.321,1.321,0,0,0,1.321,1.321H53.26a1.321,1.321,0,0,0,1.321-1.321V75.254a6.075,6.075,0,0,0-1.412-3.9,3.941,3.941,0,0,0,1.412-3.007V67.023A3.912,3.912,0,0,0,54.43,66l1.767.272a9,9,0,0,1,7.628,8.892v7.707h2.641V75.164a11.638,11.638,0,0,0-9.867-11.5L54.258,63.3a3.942,3.942,0,0,0,.322-1.561V60.42a3.9,3.9,0,0,0-.248-1.335,74.906,74.906,0,0,0,4.21-24.775V31.367A19.7,19.7,0,0,0,56.9,23.492a20.81,20.81,0,0,0,3.886-3.506l.2-.231a22.763,22.763,0,0,0,5.479-14.8A1.321,1.321,0,0,0,64.728,3.7l-1.577.528A22.773,22.773,0,0,0,55.2,8.852a21.222,21.222,0,0,0-3.522-7.331,1.368,1.368,0,0,0-2.113,0A21.262,21.262,0,0,0,45.4,12.736,19.754,19.754,0,0,0,18.924,31.367v2.944A74.929,74.929,0,0,0,23.139,59.1a3.9,3.9,0,0,0-.253,1.32v1.321a3.942,3.942,0,0,0,.322,1.561l-2.34.359A11.639,11.639,0,0,0,11,75.164v7.707h2.641ZM25.527,61.741V60.42a1.321,1.321,0,1,1,2.641,0v1.321a1.321,1.321,0,1,1-2.641,0Zm26.412,5.282v1.321a1.321,1.321,0,1,1-2.641,0V67.023a1.321,1.321,0,0,1,2.641,0Zm-1.321-3.962A1.321,1.321,0,0,1,49.3,61.741V60.42a1.321,1.321,0,1,1,2.641,0v1.321A1.321,1.321,0,0,1,50.618,63.062Zm0-6.6a3.914,3.914,0,0,0-1.924.52l-.924-2.166,1.372-1.6c.07.308.123.619.2.924L51.9,53.5a40.675,40.675,0,0,1-1.211-10.388l.083-6.442a1.321,1.321,0,0,0-1.157-1.327,13.135,13.135,0,0,1-6.163-2.466A64.445,64.445,0,0,1,55.89,35.011,72.256,72.256,0,0,1,52.3,56.844a3.923,3.923,0,0,0-1.677-.386ZM39.393,32.71a15.74,15.74,0,0,0,8.716,5.059l-.03,2.842H42.695v2.641H48.05c-.007.881.008,1.762.054,2.641H42.695v2.641h5.631c.05.445.132.886.191,1.329-.054.066-.1.132-.158.2l-2.773,3.229a7.286,7.286,0,0,1-5.532,2.546H37.412a7.286,7.286,0,0,1-5.538-2.551L29.1,50.06c-.055-.065-.1-.132-.158-.2.065-.442.141-.883.191-1.329h5.636V45.894H29.357c.046-.88.061-1.76.054-2.641h5.36V40.611H29.387l-.03-2.842a15.74,15.74,0,0,0,8.716-5.059C38.515,32.706,38.951,32.706,39.393,32.71ZM28.168,67.023v1.321a1.321,1.321,0,1,1-2.641,0V67.023a1.321,1.321,0,0,1,2.641,0Zm-.317-31.684a1.321,1.321,0,0,0-1.157,1.327l.083,6.441A40.675,40.675,0,0,1,25.566,53.5l2.562.642c.077-.306.132-.618.2-.924l1.372,1.6-.924,2.166a3.83,3.83,0,0,0-3.6-.132,72.256,72.256,0,0,1-3.595-21.836,64.467,64.467,0,0,1,12.434-2.138A13.126,13.126,0,0,1,27.851,35.339Zm-2.31,39.608a3.422,3.422,0,0,1,1.306-2.407,3.422,3.422,0,0,1,1.306,2.407Zm5.228-12.81a3.97,3.97,0,0,0,.04-.4V60.42a3.916,3.916,0,0,0-.172-1.09L31.764,56.7a9.821,9.821,0,0,0,1.161.692l-.643,4.511Zm7.963,5.415-3.894-4.868.63-4.4a9.927,9.927,0,0,0,1.944.2h2.641A9.927,9.927,0,0,0,42,58.28l.63,4.4ZM44.544,57.4A9.821,9.821,0,0,0,45.7,56.7l1.126,2.628a3.916,3.916,0,0,0-.174,1.088v1.321a3.969,3.969,0,0,0,.04.4L45.184,61.9Zm4.769,17.551a3.422,3.422,0,0,1,1.306-2.407,3.422,3.422,0,0,1,1.306,2.407ZM63.739,6.818a20.091,20.091,0,0,1-.839,4.1l-3.037.434V8.663a20.024,20.024,0,0,1,3.876-1.845Zm-6.517,3.76v2.3A1.321,1.321,0,0,0,58.542,14.2a1.28,1.28,0,0,0,.188-.013l3.055-.437a20.065,20.065,0,0,1-2.8,4.28l-.2.232a18.2,18.2,0,0,1-3.119,2.878c-.206-.339-.409-.68-.634-1.006A21.02,21.02,0,0,0,55.9,14.2a20.825,20.825,0,0,0-.132-2.223q.691-.735,1.453-1.4Zm-6.6-5.9a18.621,18.621,0,0,1,1.6,3.415l-1.6,1.6-1.6-1.6a18.518,18.518,0,0,1,1.6-3.415Zm-2.36,6.386,1.426,1.426a1.321,1.321,0,0,0,1.867,0l1.425-1.426a17.856,17.856,0,0,1-.037,6.528,19.894,19.894,0,0,0-4.951-3.727,18.422,18.422,0,0,1,.269-2.8ZM38.733,14.2a17.2,17.2,0,0,1,16.376,12,27.791,27.791,0,0,0-12.018-2.76H34.384A27.8,27.8,0,0,0,22.367,26.2a17.2,17.2,0,0,1,16.366-12ZM23.2,28.726a25.127,25.127,0,0,1,11.186-2.641h8.7a25.127,25.127,0,0,1,11.186,2.641A2.937,2.937,0,0,1,55.9,31.367v.915a67.679,67.679,0,0,0-34.336,0v-.915A2.936,2.936,0,0,1,23.2,28.726Z" fill="#445866"/>
        <rect id="Rectangle_410883" data-name="Rectangle 410883" width="2.64" height="5.445" transform="translate(18.963 77.908) rotate(-14.05)" fill="#445866"/>
        <rect id="Rectangle_410884" data-name="Rectangle 410884" width="5.445" height="2.64" transform="translate(54.619 82.551) rotate(-75.95)" fill="#445866"/>
      </g>
    </g>
  </g>
</svg>
